<svg xmlns="http://www.w3.org/2000/svg" viewBox="0 0 1024 1024" xml:space="preserve"><path fill="#F4F2ED" d="M705 1025H1V1h1024v1024H705M603.166 614.254s.216.16.707-.028c.18-.291.36-.583.32-.949 0 0 .186.14.674-.041.183-.283.367-.566.21-.84 0 0 .34.028.814-.155.177-.278.355-.556.484-.793 0 0 .067-.018.528-.19.302-.183.476-.449.504-.941 0 0 .091.11.535-.065.284-.187.448-.45.43-.97 0 0 .124.146.57-.03.285-.19.449-.455.395-1.05 0 0 .152.227.6.049.287-.19.452-.457.314-1.07 0 0 .226.236.69.038.16-.288.319-.577.273-.866 0 0 .191.074.738-.166.488-.614.976-1.228 1.355-1.922 0 0 .027.133.53-.06.187-.297.373-.594.435-.924 0 0 .06.114.566-.085.183-.303.365-.606.412-.944 0 0 .053.13.569-.067.184-.309.368-.617.406-.955 0 0 .05.14.573-.048.19-.308.38-.616.427-.954 0 0 .048.138.572-.058.186-.314.371-.628.403-.97 0 0 .04.15.57-.044.191-.313.383-.626.459-.9 0 0 .094.077.64-.216.788-.955 1.577-1.91 2.26-2.918 0 0-.013.116.511-.088.195-.312.39-.624.446-.948 0 0 .018.137.54-.069.195-.31.39-.618.45-.947 0 0 .005.138.542-.07.221-.307.442-.615 1.212-1.193 1.072-1.219 2.144-2.437 3.714-3.922.31-.454.621-.907.995-1.427 0 0 .09-.016.57-.305.437-.608.873-1.216 1.199-1.904 0 0 .007.136.518-.07.18-.311.358-.624.393-.972 0 0 .037.144.56-.066.177-.322.355-.644.389-1.002 0 0 .017.147.523-.087.15-.337.3-.674.348-1.016 0 0 .008.103.518-.093.194-.3.388-.6.482-.904 0 0 .008.1.516-.098.196-.298.39-.596.485-.903 0 0 .005.102.514-.105.207-.295.413-.59 1.046-1.015.28-.161.436-.403 1.003-.998.48-.63.96-1.262 1.395-1.917 0 0 .03.041.549-.234.29-.499.58-.998.759-1.579 0 0-.013.137.468-.123.124-.342.247-.684.266-1.032 0 0 .007.106.518-.091.194-.3.388-.6.48-.906 0 0 .008.102.517-.097.196-.298.392-.596.484-.903 0 0 .005.104.524-.098.215-.294.43-.588 1.065-1.019.266-.175.412-.421.994-1.029.614-.814 1.227-1.63 1.753-2.42 0 0 .062-.066.541-.27.162-.302.323-.604.401-.99 0 0-.021.117.458-.145.122-.343.243-.685.263-1.033 0 0 .007.102.517-.094.193-.3.386-.598.483-.903 0 0 .007.097.515-.1.195-.297.39-.594.486-.898 0 0 .006.099.516-.104.202-.297.404-.594 1.045-1.044.284-.185.434-.446.962-1.067.295-.496.591-.992.85-1.585 0 0-.057.086.403-.182.109-.339.218-.677.225-1.022 0 0 .007.101.516-.095.194-.298.388-.596.485-.9 0 0 .008.098.515-.1.192-.299.384-.598.495-.896 0 0 .025.077.529-.151.301-.446.602-.89.966-1.423l.571-.369c.343-.684.686-1.368.93-2.065 0 0 0 .1.508-.096.196-.297.391-.594.506-.888 0 0 .024.078.523-.127.306-.42.611-.842.997-1.386 0 0 .057-.137.453-.299.24-.186.377-.43.52-.794 0 0 .1-.074.615-.504.96-1.568 2.473-3.036 2.779-4.723 1.203-6.63 2.406-13.301 2.92-20.01 1.555-20.32 2.772-40.668 4.185-61 .098-1.401.73-2.765 1.548-4.27.277-.173.43-.42.953-.986.194-.304.387-.608.485-.915 0 0 .01.095.511-.108.195-.294.39-.588.492-.889 0 0 .008.094.508-.11.196-.295.392-.59.492-.889 0 0 .01.095.513-.107.194-.296.388-.592.486-.895 0 0 .008.096.514-.104.194-.297.388-.595.484-.897 0 0 .009.097.517-.1.194-.299.388-.597.482-.901 0 0 .008.1.517-.098.194-.3.388-.598.483-.902 0 0 .008.099.516-.1.195-.298.389-.597.484-.9 0 0 .007.098.516-.099.195-.299.389-.597.484-.901 0 0 .008.098.517-.099.194-.298.388-.597.483-.901 0 0 .008.099.517-.098.194-.299.388-.598.482-.904 0 0 .006.1.522-.1.206-.297.413-.596 1.218-1.165 6.713-6.37 13.906-12.313 20.03-19.208 9.898-11.144 19.298-22.75 28.54-34.452 18.584-23.527 33.35-49.307 44.7-77.759.05-.429.099-.858.045-1.294 0 0 .02.101.575-.191.21-.584.42-1.167.51-1.777 0 0 .018.12.564-.328.454-1.578.909-3.155 1.287-4.739 0 0 .03.07.596-.318.173-.891.346-1.783.435-2.668 0 0 .023.082.625-.332 3.961-13.671 8.384-27.229 11.78-41.04 5.592-22.75 8.585-45.912 8.428-69.383-.016-2.49-1.848-4.966-2.99-7.89-.188-.282-.451-.425-1.13-.948-.581-.188-1.164-.377-1.741-.488 0 0 .074-.02-.354-.645-2.253-.174-4.635-.916-6.736-.432-16.882 3.884-34.043 6.977-50.47 12.309-19.27 6.253-37.917 14.44-56.758 21.976-3.243 1.297-6.11 3.537-9.17 5.45 0 0 .085-.071-.596.153-3.678 2.036-7.357 4.073-11.744 6.233-7.118 4.975-14.235 9.95-21.992 14.97-.532.551-1.064 1.103-1.5 1.767 0 0 .05-.14-.528.02-.43.393-.86.785-1.21 1.215 0 0-.035-.082-.713.007-.902.886-1.804 1.772-2.558 2.725 0 0-.037-.158-.592.024-.408.4-.816.798-1.136 1.24 0 0-.045-.085-.725.007-1.206 1.245-2.413 2.49-3.475 3.715 0 0-.093-.111-.686.101-.753.717-1.506 1.435-2.688 2.282-.272.172-.427.418-1.153.881-1.874 1.939-3.748 3.878-5.463 5.871 0 0-.01-.168-.539.013-.202.3-.405.6-.465.92 0 0-.059-.131-.577.055-.194.3-.388.6-.448.924 0 0-.061-.122-.575.068-.188.302-.376.604-.428.933 0 0-.06-.125-.572.062-.19.3-.38.599-.437.925 0 0-.063-.118-.574.068-.188.298-.377.596-.435.918 0 0-.069-.113-.574.069-.188.293-.376.587-.374.94 0 0-.15-.129-.646.057-.183.291-.366.582-.317.972 0 0-.196-.157-.69.032-.18.294-.36.588-.372.949 0 0-.12-.136-.618.053-.182.294-.365.588-.386.943 0 0-.113-.13-.612.059-.183.294-.366.59-.394.954 0 0-.1-.137-.603.063-.178.305-.357.61-.398.953 0 0-.048-.135-.564.068-.182.31-.364.622-.365.945 0 0-.057-.173-.652-.03-.434.39-.868.782-1.205 1.224 0 0-.056-.095-.661.2-1.504 1.924-3.007 3.848-4.931 5.907-.268.174-.412.42-.979 1.022-.62.76-1.24 1.52-1.932 2.387 0 0-.073.104-.471.276-.25.18-.393.423-.449.808 0 0-.075.029-.513.23-.266.217-.417.495-.291 1.1 0 0-.114-.29-.726.01-2.365 2.333-6.44 3.198-6.528 7.617 0 0-.091.042-.582.33-.43.625-.86 1.25-1.171 1.84 0 0-.1-.073-.73.132-1.052 1.361-2.102 2.723-3.063 4.13 0 0-.036-.095-.542.138-.299.453-.597.905-.9 1.445 0 0-.066.059-.617.37-1.448 1.877-2.896 3.755-4.253 5.64 0 0-.068.06-.54.286-.15.31-.301.62-.324.886 0 0-.103-.088-.725.106-.393.698-.786 1.396-1.092 2.134 0 0-.032-.09-.625.24a1426.006 1426.006 0 0 0-3.88 5.281s-.046.14-.579.458c-1.11 1.47-2.22 2.941-3.418 4.536 0 0-.047.145-.468.344-.24.225-.373.502-.4.75 0 0-.079 0-.686.266a757.06 757.06 0 0 0-6.35 8.713s-.03.066-.493.277c-.144.303-.288.607-.32.848 0 0-.112-.064-.737.147-.686 1.05-1.37 2.099-1.99 3.174 0 0-.038-.06-.554.235-.277.518-.554 1.035-.693 1.496 0 0-.114-.096-.755.11a125.702 125.702 0 0 1-2.518 3.728s-.056-.01-.618.268c-.995 1.374-1.99 2.748-3.448 4.18 0 0-.435.17-1.33.087-12.573.998-25.252 1.292-37.69 3.18-13.936 2.117-27.652 5.677-42.072 8.937-1.312.957-2.823 1.732-3.904 2.903-6.472 7.014-12.844 14.12-19.253 21.192-3.648 4.025-7.328 8.022-10.95 12.07-5.48 6.128-11.017 12.208-16.352 18.46-4.76 5.577-9.278 11.36-14.688 17.165-3.238 2.867-2.535 6.187-1.297 9.714 1.529 4.354 4.695 6.544 9.044 6.96 5.87.562 11.77.815 17.656 1.202 10.802.71 21.596 1.602 32.408 2.085 11.993.536 24.003.698 36.007 1.525-.004.168-.007.335-.489.9-.317.756-.635 1.511-.913 2.283 0 0 .004.043-.443.404-.207.534-.415 1.068-.546 1.519 0 0-.113.001-.691.34-3.5 6.727-6.91 13.503-10.526 20.167-3.108 5.729-2.986 6.862 2.26 11.314 0 0-.044-.081.13.421.287.19.574.38.903.272 0 0-.095.286.075.767.275.182.55.364.975.614 0 0-.164-.019-.007.415.157.291.4.46.793.607 0 0 .061.1.22.486.158.254.385.398.76.534 0 0 .08.1.23.475.153.246.373.386.74.556 0 0 .113.108.252.462.138.236.343.368.703.583 0 0 .172.118.304.455.14.22.338.34.669.526 0 0 .121.13.364.587.392.339.785.677 1.374 1.526.553.455 1.107.91 1.902 1.867.303.204.607.407.912.488 0 0-.12.018.087.53.301.198.602.396.912.474 0 0-.12.013.089.523.303.196.605.393.916.473 0 0-.116.011.09.521.3.199.6.398.908.48 0 0-.116.012.092.521.3.199.6.397.907.48 0 0-.116.012.093.52.298.201.596.402.905.482 0 0-.12.01.09.53.302.212.604.424 1.196 1.22 2.544 2.414 5.088 4.829 7.884 7.73.43.311.86.622 1.348 1.131 0 0 .153.139.25.316 0 0 .2.036.515.633 8.603 7.077 17.07 14.326 25.856 21.17 5.796 4.514 8.096 4.213 14.386.173 6.805-4.371 13.684-8.628 20.552-12.029.317 4.284.561 8.574.964 12.85 2.052 21.744 4.013 43.5 6.332 65.216.477 4.461 2.348 8.773 3.602 13.072 0 0-.087 0 .1.525.3.204.599.408.908.48 0 0-.132.015.072.533.31.191.622.383.93.48 0 0-.09.03.29.655 3.538 2.052 7.124 3.347 11.104.845 0 0 .225-.05.74-.243.402-.363.804-.727 1.107-1.145 0 0 .02.111.551-.061.215-.288.43-.575.51-.871 0 0 .07.117.585-.066.193-.296.386-.592.451-.914 0 0 .067.11.574-.063.19-.29.38-.58.317-.952 0 0 .226.141.717-.047.181-.29.362-.58.294-.973m39.099-2.463c-.242.263-.484.526-.61.704 0 0-.13-.06-.639.233-.402.41-.804.82-1.64 1.31-.29.156-.435.398-.947.977-.21.31-.42.621-.481.935 0 0-.014-.149-.53.073-.209.304-.417.609-.471.924 0 0-.007-.153-.533.075-.216.31-.433.619-1.071 1.02-.274.166-.406.41-.912.984-.218.309-.436.618-1.24 1.165-1.41 1.542-2.821 3.083-4.736 4.869-.212.3-.424.601-1.075 1.006-.285.174-.424.428-.918 1.005-.214.298-.428.597-1.202 1.089-.77.88-1.54 1.762-2.82 2.88-.204.306-.408.612-.478.922 0 0-.01-.134-.519.091-.205.302-.41.603-.484.91 0 0-.01-.132-.524.08-.205.303-.41.605-.48.914 0 0-.008-.135-.521.085-.205.302-.41.604-.48.914 0 0-.009-.136-.523.084-.213.3-.425.599-.491.904 0 0-.014-.146-.533.071-.203.308-.406.615-.46.933 0 0-.007-.15-.531.07-.215.303-.43.606-.471.926 0 0-.002-.176-.573.052-.26.312-.52.623-1.385 1.156-6.59 5.244-13.173 10.494-19.776 15.72-.584.462-1.3 1.099-1.946 1.088-6.584-.115-13.265-.06-17.91-6.634-.43-.818-.858-1.636-1.31-2.372 0 0 .084.008-.073-.732-1.51-3.82-3.022-7.639-4.354-11.537 0 0 .003-.195-.268-.859-.972-2.35-1.944-4.702-2.746-7.128 0 0 .006-.186-.28-.824-.74-1.684-1.48-3.368-2.247-4.941 0 0 .114.001.003-.748-1.88-4.172-3.76-8.344-5.569-12.451 0 0 .036-.09-.187-.614a20.15 20.15 0 0 1-.777-1.509s.023-.053-.274-.664c-.945-1.759-1.89-3.518-2.763-5.283 0 0 .015-.07-.28-.684-1.04-1.72-2.079-3.442-3.145-5.05 0 0 .116 0-.018-.533-.334-.369-.668-.738-1.47-1.655-1.388-1.987-2.795-3.96-4.161-5.963-7.016-10.283-9.183-10.828-18.945-3.134-7.14 5.626-13.68 12.005-20.68 17.817-8.14 6.76-16.476 13.286-24.757 19.877-9.654 7.683-19.299 15.38-29.032 22.962-3.63 2.827-7.5 5.346-11.26 8.005l-.918-.86c1.81-6.747 3.622-13.495 6.126-20.23 7.255-7.27 14.115-14.993 21.845-21.716 18.195-15.823 36.812-31.16 55.243-46.713 4.142-3.495 4.177-4.694.069-8.163-4.7-3.969-9.606-7.7-14.233-11.75-3.01-2.634-5.223-2.428-7.977.501-16.794 17.863-33.783 35.542-50.577 53.405-8.173 8.692-15.968 17.74-24.113 26.46-8.028 8.595-16.666 16.648-24.347 25.535-10.956 12.678-21.282 25.9-32.406 39.362-1.474 1.727-2.742 3.696-4.455 5.139-8.412 7.087-16.875 14.118-25.5 20.94-1.335 1.057-3.607.929-5.445 1.348-.177-2.149-1.323-4.964-.376-6.34 7.023-10.214 14.424-20.17 21.78-30.15 8.64-11.725 17.356-23.395 26.81-35.127.602-.969 1.204-1.938 1.729-2.927 0 0 .038.07.718.277.111-.42.223-.841.27-1.292 0 0 .033.063.669.14.123-.378.247-.756.324-1.148 0 0 .019.045.703-.016 10.351-11.724 20.435-23.698 31.108-35.122 23.065-24.687 46.398-49.125 69.727-73.564 2.359-2.47 3.072-4.288.7-7.148-4.237-5.11-8.205-10.447-12.243-15.722-2.277-2.975-4.501-2.985-6.859-.118-5.175 6.295-10.552 12.433-15.528 18.881-13.947 18.073-27.962 36.102-41.501 54.48-9.055 12.29-17.342 25.145-26.537 38.235-2.131.687-4.23 1.77-6.403 1.948-2.155.177-5.549.152-6.291-1.068-.953-1.565-.519-4.85.57-6.63 4.865-7.953 10.389-15.504 15.266-23.45 4.961-8.085 9.443-16.464 14.307-25.173 0 0 .146-.467.05-.475 0 0 .015.095.553-.152.313-.5.626-1 .871-1.617 0 0-.07.117.36-.212.102-.345.204-.69.204-1.033 0 0 .02.1.56-.172.3-.523.599-1.045.715-1.566 0 0 .104.151.739-.133.679-1.374 1.358-2.748 1.958-4.131 0 0 .029.073.557-.256.2-.583.4-1.167.48-1.749 0 0 .02.118.541-.11.325-.464.65-.928.968-1.503 0 0-.092-.062.317-.38.096-.333.191-.667.175-.998 0 0 .021.11.603-.175.503-.939 1.005-1.878 1.401-2.822 0 0 .015.105.59-.188.504-.937 1.006-1.874 1.405-2.814 0 0 .016.103.548-.157.313-.501.625-1.002.84-1.625 0 0-.057.145.386-.18.108-.348.216-.697.219-1.042 0 0 .02.104.598-.188.506-.934 1.013-1.87 1.412-2.808 0 0 .015.106.531-.128.327-.46.653-.92.976-1.5 0 0-.098-.068.319-.379.094-.334.187-.669.144-1.006 0 0 .01.137.53-.071.192-.306.384-.613.484-.911 0 0 .025.09.564-.242.508-.912 1.017-1.825 1.444-2.747 0 0 .017.081.539-.182.32-.487.64-.974.898-1.582 0 0-.08.11.352-.221.108-.347.217-.693.213-1.035 0 0 .022.11.512-.093.33-.41.661-.819 1.056-1.367 0 0 .036-.147.424-.423.21-.252.348-.537.252-.935 0 0 .008.184.481-.123.131-.352.262-.704.283-1.052 0 0 .023.108.489-.09.174-.277.348-.554 1.123-1.158l18.81-24.505c-4.012-2.844-7.752-5.495-11.956-8.315 0 0-.47-.146-.478-.049 0 0 .096-.014-.21-.623-1.604-.81-3.207-1.62-4.806-2.35 0 0 .079-.017-.252-.545-.587-.186-1.174-.372-1.754-.459 0 0 .096-.021-.227-.56-.594-.178-1.188-.356-1.774-.439 0 0 .094-.02-.225-.562-.594-.174-1.189-.348-1.775-.434 0 0 .086-.02-.309-.611-1.56-.504-3.122-1.008-4.687-1.41 0 0 .102-.014-.248-.634-1.545-.548-3.09-1.096-4.667-1.501 0 0 .145-.022-.302-.544-.886-.221-1.773-.442-2.718-.504 0 0 .168.004-.356-.54-4.914-1.06-9.827-2.12-15.167-3.253 0 0-.434-.004-.823-.704-1.582-.146-3.165-.292-4.744-.317 0 0 .12-.016-.331-.735-4.853-.604-9.69-1.476-14.56-1.765-17.568-1.042-34.784.691-51.377 6.91 0 0-.27-.02-.857.158-.71.343-1.42.686-2.22.873 0 0-.18.002-.812.293-1.679.74-3.358 1.479-4.918 2.25 0 0 .007-.123-.62-.021-.528.298-1.056.596-1.449.922 0 0-.024-.136-.755.033-2.555 1.342-5.11 2.684-8.251 4.356-3.08 1.6-6.312 2.964-9.214 4.84-12.934 8.36-24.06 18.823-33.743 30.7-3.38 4.147-5.343 9.451-8.564 14.359-.48.613-.961 1.227-1.363 1.845 0 0-.033-.072-.53.285-.215.567-.43 1.134-.526 1.694 0 0-.03-.115-.613.292-.392.517-.88.986-1.161 1.557-11.664 23.754-16.064 48.824-14.032 75.503-.053.19-.106.378-1.005.602-3.702.775-7.48 1.29-11.09 2.372-11.425 3.426-22.17 8.27-31.58 16.072 0 0-.128.115-.66.475-.723.623-1.447 1.246-2.005 1.936 0 0-.016-.178-.556.039-.386.4-.771.8-1.822 1.38-4.798 5.004-9.596 10.007-14.963 15.29-.528.821-1.057 1.643-1.501 2.476 0 0-.022-.082-.54.199-.314.498-.627.997-.805 1.446 0 0-.129-.065-.725.258-.997 1.702-1.994 3.403-2.91 5.11 0 0-.027-.078-.591.285-.639 1.113-1.277 2.226-1.644 3.24 0 0-.284.053-.863.43-3.065 6.981-6.13 13.963-9.052 20.981 0 0-.018-.146-.535.31-.222.89-.444 1.78-.497 2.717 0 0-.005-.176-.56.351-4.136 13.924-5.87 28.158-5.086 42.644.236 4.366 1.317 8.687 1.765 13.792.099.791.197 1.582.163 3.186 2.321 7.694 4.642 15.387 7.132 23.793 4.588 12.346 10.924 23.647 19.919 33.944.533.284 1.066.568 1.67.646 0 0-.218.013.007.53.29.228.579.456.877.504 0 0-.154.094.078.568.274.21.547.421.738.623 0 0-.002.082.32.534.533.503 1.067 1.006 1.663 1.469l.277.473c.19.269.443.45 1.15.496 0 0-.384.092-.134.51.209.266.475.448.959.218 0 0-.213.297.045.744.282.191.563.382.891.423 0 0-.138.075.129.55.303.191.606.382.956.38 0 0-.193.05.073.559.326.19.652.382.964.389 0 0-.163.088.05.732 1.034.729 2.068 1.458 3.11 2.103 0 0-.082.017.263.611 1.822 1.272 3.643 2.544 5.475 3.662 0 0-.12.097.172.746 4.9 2.823 9.801 5.645 14.797 8.456 0 0 .052-.082.533.396 10.602 3.302 21.204 6.605 32.581 10.08 2.088.283 4.176.564 7.192.987 23.33.095 46.659.26 69.988.274 88.991.054 177.982.06 267.188.42.327-.113.654-.225 1.903-.399 11.297.02 22.594.04 34.447.456 1.54-.13 3.08-.261 5.544-.452 20.967.021 41.933.043 63.34.447a87.13 87.13 0 0 1 3.662-.442c18.328-.002 36.656.05 54.983-.024 14.657-.06 29.312-.276 44.768-.309 3.433-.72 6.865-1.44 10.805-2.108.192-.275.384-.55.46-.832 0 0 .003.117.81.042 3.803-1.298 7.607-2.597 11.27-3.916 0 0 .027.138.716-.022 1.396-1.035 2.792-2.07 4.91-3.227 10.47-3.694 17.54-11.558 24.833-19.954.2-.304.402-.607.47-.92 0 0 .006.132.518-.086.2-.304.4-.608.5-.91 0 0 .02.096.596-.197.508-.932 1.017-1.864 1.418-2.802 0 0 .015.107.598-.178.497-.94.993-1.881 1.39-2.824 0 0 .016.098.608-.228.817-1.595 1.634-3.19 2.37-4.778 0 0 .02.078.605-.329.844-2.217 1.688-4.434 2.43-6.658 0 0 .015.1.649-.29.72-2.914 1.44-5.828 2.489-9.488.918-5.734 2.147-11.442 2.637-17.213.282-3.322-.632-6.746-.883-11.005a2101.404 2101.404 0 0 0-2.925-15.089s.088.01-.01-.676c-.323-.802-.646-1.604-.99-2.33 0 0 .079.008-.012-.702-.655-1.458-1.311-2.916-1.99-4.291 0 0 .087.01-.021-.612-.316-.496-.631-.991-.967-1.39 0 0 .099.006-.035-.61-.316-.494-.631-.99-.967-1.392 0 0 .094.005-.047-.595-.317-.492-.634-.984-.972-1.404 0 0 .076.008-.039-.539-.224-.276-.449-.553-.655-.634 0 0 .17-.098-.064-.657-.397-.427-.793-.853-1.21-1.179 0 0 .103.002-.05-.516-.2-.275-.398-.55-.47-.792 0 0 .028-.128-.26-.628-.399-.39-.798-.78-1.212-1.065 0 0 .106-.005-.097-.62-.643-.837-1.286-1.675-2.013-2.954-.167-.287-.417-.429-1.007-.968-.51-.596-1.021-1.193-1.547-1.56 0 0 .08-.216-.138-.69a6.555 6.555 0 0 1-.812-.76s-.038-.105-.163-.338c0 0-.251-.083-.492-.715-5.418-4.158-10.837-8.316-16.653-13.081-1.893-.954-3.786-1.908-5.795-2.856 0 0-.088.076-.551-.36-1.21-.472-2.42-.943-3.679-1.27 0 0 .154-.007-.35-.553a4010.764 4010.764 0 0 0-14.191-3.272s-.435-.005-.888-.739c-6.208-.44-12.416-.882-18.67-1.238 0 0 .084-.048-.047-.877a6352.661 6352.661 0 0 0-5.788-25.215s.13-.045-.033-.779c-1.362-3.078-2.725-6.156-4.109-9.144 0 0 .093.007-.033-.609-.315-.496-.63-.991-.964-1.394 0 0 .095.005-.039-.606-.315-.494-.63-.988-.964-1.397 0 0 .088.004-.048-.619a100.034 100.034 0 0 0-1.49-2.551s.026-.146-.226-.69c-.4-.416-.8-.832-1.217-1.135 0 0 .114.001-.047-.607-.312-.501-.625-1.002-.96-1.422 0 0 .084-.007-.085-.62-.627-.823-1.255-1.647-1.905-2.371 0 0 .101 0-.098-.521-.309-.197-.618-.394-.926-.457 0 0 .133-.014-.044-.642-.639-.825-1.278-1.649-1.935-2.375 0 0 .1-.002-.105-.52-.305-.2-.61-.4-.916-.465 0 0 .135-.012-.032-.55-.321-.371-.643-.743-1.581-1.476-4.587-4.667-9.174-9.335-13.856-14.538-.508-.191-1.017-.383-1.537-.442 0 0 .133-.002-.081-.515-.305-.198-.609-.396-.911-.497 0 0 .095-.02-.17-.543-.491-.319-.982-.637-1.595-.877 0 0 .129.066-.202-.368-.347-.112-.693-.224-1.036-.222 0 0 .11-.022-.169-.61-.94-.5-1.882-1.001-2.828-1.397 0 0 .105-.015-.206-.619-1.598-.823-3.196-1.645-4.797-2.369 0 0 .098-.016-.19-.565-.559-.26-1.117-.521-1.704-.613 0 0 .167-.04-.207-.54-.585-.217-1.17-.434-1.785-.48 0 0 .168-.043-.218-.53-.585-.206-1.17-.413-1.785-.459 0 0 .16-.04-.234-.53-.6-.181-1.2-.362-1.816-.389 0 0 .152-.032-.312-.568-1.561-.53-3.123-1.06-4.697-1.426 0 0 .162-.033-.274-.561-.88-.245-1.759-.49-2.695-.57 0 0 .174-.01-.298-.508-.892-.204-1.784-.408-2.732-.445 0 0 .177.002-.355-.552-4.243-.783-8.485-1.565-12.724-2.235 0 0 .113-.013-.095-.473-.288-.103-.575-.205-1.725-.489-2.037-.016-4.074-.031-6.543-.814-3.46-.12-6.918-.332-10.378-.342-11.203-.03-22.216 1.04-32.361 6.014 0 0-.009-.151-.63-.02-.529.3-1.057.598-1.442.923 0 0-.042-.139-.744.068-1.522.899-3.044 1.798-4.436 2.806 0 0 .001-.17-.548.08-.436.387-.873.773-1.187 1.187 0 0 0-.126-.548.06-.25.275-.5.551-.542.837 0 0-.05-.202-.572-.015z"/><path fill="#174349" d="M696.086 600.96c2.036.016 4.073.031 6.672.321.808.457 1.077.59 1.37.675 0 0-.112.013.104.269 4.49 1.015 8.765 1.774 13.04 2.533 0 0-.177-.002-.027.28 1.118.408 2.086.534 3.054.66 0 0-.174.01-.035.295 1.09.46 2.04.638 2.992.814 0 0-.162.033-.033.306 1.763.744 3.398 1.216 5.032 1.689 0 0-.152.032-.027.288.778.378 1.431.5 2.084.622 0 0-.159.041-.049.306.76.404 1.411.542 2.061.68 0 0-.168.045-.057.305.756.413 1.402.566 2.048.72 0 0-.167.04-.069.285.697.47 1.296.693 1.894.916 0 0-.098.016.002.313 1.736 1.09 3.372 1.883 5.008 2.676 0 0-.105.015-.013.3 1.066.756 2.041 1.228 3.016 1.7 0 0-.111.022.017.234.498.289.869.366 1.239.444 0 0-.129-.066-.066.242.64.57 1.219.831 1.797 1.092 0 0-.095.02 0 .235a4.97 4.97 0 0 0 1.03.795s-.133.002-.038.195c.575.39 1.056.588 1.537.785 4.587 4.667 9.174 9.335 14.105 14.458.698.823 1.051 1.19 1.404 1.558 0 0-.135.012-.039.211.405.394.715.589 1.024.784 0 0-.1.002-.104.3.703 1.1 1.41 1.902 2.117 2.705 0 0-.133.014-.036.213.408.392.718.586 1.028.78 0 0-.1-.001-.124.322.684 1.103 1.39 1.882 2.097 2.66 0 0-.083.008-.078.298.375.774.745 1.257 1.115 1.74 0 0-.114 0-.108.288.492.656.977 1.023 1.463 1.39 0 0-.027.146-.184.421.49 1.15 1.137 2.024 1.784 2.899 0 0-.088-.004-.077.28.369.763.728 1.243 1.087 1.724 0 0-.095-.005-.086.275.366.764.724 1.247 1.081 1.73 0 0-.093-.007-.108.344 1.419 3.41 2.853 6.469 4.287 9.527 0 0-.13.045-.19.412 1.315 8.397 2.66 16.432 4.136 24.442.094.508 1.205.828 1.843 1.235 0 0-.085.048-.002.41 1.364.786 2.635 1.539 3.926 1.573 5.035.136 10.076.044 15.115.037 0 0 .435.005.764.323 5.008 1.378 9.687 2.44 14.366 3.5 0 0-.154.007-.067.313 1.41.67 2.732 1.035 4.055 1.4 0 0 .088-.076.132.303 2.08 1.28 4.114 2.182 6.149 3.084 5.418 4.158 10.837 8.316 16.215 12.91.193.462.425.487.657.512 0 0 .038.105.009.482.334.537.697.697 1.06.857l-.173.463c.571.783 1.234 1.32 1.896 1.855.333-.003.583.14.79.997.751 1.38 1.463 2.19 2.176 2.998 0 0-.106.005-.101.3.501.619.998.944 1.495 1.27 0 0-.028.128-.132.406.174.53.45.78.727 1.032 0 0-.103-.002-.097.293.483.678.96 1.06 1.438 1.443 0 0-.17.098-.189.3.25.46.52.72.79.98 0 0-.077-.009-.05.277.38.764.733 1.24 1.086 1.718 0 0-.094-.005-.085.276.37.763.73 1.245 1.092 1.727 0 0-.1-.006-.095.273.36.764.715 1.248 1.07 1.733 0 0-.085-.01-.098.332.689 1.78 1.391 3.22 2.093 4.659 0 0-.08-.008-.084.314.36 1.113.727 1.903 1.093 2.694 0 0-.088-.01-.1.381.928 5.454 1.87 10.516 2.812 15.579.376 3.378 1.29 6.802 1.008 10.124-.49 5.771-1.719 11.479-3.08 17.803-1.189 3.49-1.934 6.389-2.68 9.288 0 0-.015-.1-.319.01-1.106 2.392-1.908 4.674-2.71 6.955 0 0-.02-.078-.315.022-1.085 1.735-1.877 3.37-2.668 5.004 0 0-.016-.098-.3-.002-.751 1.068-1.22 2.04-1.69 3.013 0 0-.014-.107-.297-.017-.76 1.061-1.235 2.033-1.711 3.005 0 0-.02-.096-.233.002-.408.41-.604.72-.8 1.03 0 0-.004-.132-.201-.04-.402.386-.607.68-.812.974-6.756 8.25-13.825 16.114-25.004 19.906-2.102 1.162-3.496 2.225-4.89 3.289 0 0-.026-.138-.375-.194-4.143 1.313-7.936 2.68-11.729 4.047 0 0-.004-.117-.161-.033-.461.196-.679.4-.81.697-3.432.72-6.864 1.44-11.002 1.822-2.188-.45-3.67-.663-5.153-.663-178.553-.016-357.105-.018-535.658.02-1.745.001-3.49.566-5.235.868-2.088-.282-4.176-.563-6.743-1.293-.834-.77-1.138-1.263-1.552-1.388a2898.233 2898.233 0 0 0-25.868-7.686c-1.679-.49-3.44-.698-5.163-1.037 0 0-.052.082-.056-.285-5.03-3.157-10.058-5.948-15.085-8.738 0 0 .12-.097.124-.391-1.938-1.517-3.881-2.74-5.824-3.962 0 0 .082-.017.088-.349-1.106-1.026-2.217-1.72-3.329-2.415 0 0 .163-.088.106-.31-.43-.374-.8-.525-1.173-.675 0 0 .193-.05.143-.279-.425-.361-.799-.494-1.173-.627 0 0 .138-.075.122-.327-.389-.374-.76-.496-1.133-.618 0 0 .213-.297.16-.459-.42-.266-.788-.37-1.156-.474 0 0 .384-.092.239-.39-.512-.402-.878-.504-1.245-.607 0 0-.037-.064.033-.399-.638-.752-1.347-1.17-2.055-1.586 0 0 .002-.082.069-.404-.302-.472-.67-.624-1.037-.775 0 0 .154-.094.14-.328-.37-.419-.73-.603-1.088-.787 0 0 .217-.013.167-.227-.562-.49-1.073-.767-1.583-1.043-9.031-9.686-15.367-20.987-19.801-33.912-1.758-8.05-3.648-15.526-5.634-22.976-.12-.453-.995-.705-1.519-1.05-.099-.792-.197-1.583.083-3.03.474-1.138.653-1.622.653-2.106.017-11.89-.293-23.79.143-35.663.227-6.204 1.759-12.36 2.701-18.538 0 0 .005.176.282.029.43-1.107.583-2.066.737-3.026 0 0 .018.146.313.065a356.719 356.719 0 0 0 8.533-17.17c.569-1.23.55-2.731.803-4.107 0 0 .284-.053.533.026.819-1.175 1.39-2.428 1.96-3.682 0 0 .026.077.345.068 1.274-1.813 2.23-3.618 3.187-5.423 0 0 .13.065.41.078.534-.572.788-1.156 1.042-1.74 0 0 .022.082.326.08.791-.92 1.279-1.837 1.766-2.754 4.798-5.003 9.596-10.006 15.036-15.157 1.001-.581 1.36-1.016 1.72-1.45 0 0 .016.178.306.226.942-.75 1.595-1.547 2.247-2.344 0 0 .128-.115.535.046 2.003-.616 3.61-1.372 5.193-2.174 7.372-3.732 14.614-7.752 22.148-11.122 5.044-2.255 10.498-3.595 15.768-5.344.053-.189.106-.378.726-.902.81-3.565 1.396-6.812 1.237-10.023-.98-19.814 2.533-38.781 10.227-57.03 1.391-3.3 2.503-6.716 3.744-10.079 0 0 .031.115.27-.007.42-.724.603-1.327.784-1.929 0 0 .033.072.323.064.755-.661 1.22-1.315 1.684-1.97 2.61-4.775 4.572-10.079 7.953-14.226 9.683-11.877 20.81-22.34 33.743-30.7 2.902-1.876 6.134-3.24 9.916-4.97 3.228-1.552 5.754-2.974 8.28-4.395 0 0 .024.136.3.165.785-.331 1.293-.692 1.8-1.053 0 0-.007.122.337.142 1.965-.84 3.585-1.7 5.205-2.56 0 0 .18-.002.593.23 1.074-.273 1.735-.778 2.395-1.284 0 0 .27.02.702.285 1.726.065 3.056-.006 4.31-.352 12.041-3.318 24.206-5.735 36.786-5.274 8.287.304 16.573.623 24.86.936 0 0-.12.016.103.28 1.786.426 3.348.59 4.91.753 0 0 .434.004.876.326 5.377 1.373 10.313 2.424 15.25 3.475 0 0-.17-.004-.026.281 1.103.437 2.062.589 3.022.74 0 0-.145.023-.065.33 1.698.81 3.318 1.312 4.937 1.814 0 0-.102.014.023.318 1.736.768 3.347 1.232 4.957 1.696 0 0-.086.021.05.269.742.408 1.35.567 1.958.727 0 0-.094.021.04.268.744.408 1.353.57 1.963.73 0 0-.096.022.033.27.738.41 1.347.574 1.956.739 0 0-.08.018.022.312 1.738 1.084 3.374 1.874 5.01 2.664 0 0-.095.014-.043.16.332.122.61.097.89.072 3.74 2.65 7.48 5.302 11.491 8.146-6.517 8.49-12.663 16.497-19.269 24.492-.683.448-.906.908-1.13 1.369 0 0-.022-.108-.244.011-.325.493-.43.866-.534 1.24 0 0-.008-.184-.24-.115-.29.426-.35.784-.408 1.142 0 0-.036.147-.394.11-.635.51-.912 1.059-1.188 1.608 0 0-.022-.111-.232.018-.285.498-.36.867-.436 1.236 0 0 .081-.11-.236-.053-.579.633-.841 1.211-1.103 1.79 0 0-.017-.082-.342-.062-.77 1.033-1.214 2.046-1.658 3.059 0 0-.025-.09-.244-.002-.407.402-.596.717-.785 1.03 0 0-.01-.136-.199-.005-.25.482-.31.834-.372 1.186 0 0 .098.069-.246.085-.611.584-.88 1.15-1.148 1.717 0 0-.015-.106-.296-.012-.757 1.065-1.233 2.036-1.708 3.006 0 0-.021-.104-.236.024-.291.498-.369.868-.447 1.239 0 0 .058-.145-.243-.077-.557.651-.815 1.234-1.072 1.817 0 0-.016-.103-.3-.011-.754 1.065-1.225 2.04-1.696 3.015 0 0-.015-.105-.298-.015-.756 1.066-1.228 2.041-1.7 3.017 0 0-.02-.11-.228.013-.264.48-.32.837-.377 1.193 0 0 .092.062-.25.073-.611.58-.88 1.15-1.147 1.72 0 0-.02-.118-.256.017-.415.738-.594 1.34-.772 1.943 0 0-.029-.073-.357-.047-.974 1.48-1.62 2.935-2.265 4.39 0 0-.104-.152-.356-.115-.503.626-.753 1.214-1.003 1.801 0 0-.02-.1-.235.027-.283.497-.35.866-.419 1.235 0 0 .07-.117-.244-.054-.575.643-.835 1.222-1.095 1.801 0 0-.014-.095-.159-.041-.252.125-.461.248-.454.26.11.215.246.416.377.62-4.693 8.25-9.175 16.629-14.136 24.713-4.877 7.947-10.401 15.498-15.266 23.452-1.089 1.778-1.523 5.064-.57 6.629.742 1.22 4.136 1.245 6.291 1.068 2.173-.179 4.272-1.261 7.106-2.23 5.563-1.247 10.422-2.21 15.42-2.996.138.18.453.504.351.829-2.5 3.478-4.98 6.573-7.275 9.799-2.993 4.209-5.84 8.521-8.75 12.79 0 0-.019-.046-.314-.096-.42.34-.542.73-.665 1.12 0 0-.033-.062-.297-.04-.405.37-.545.716-.686 1.063 0 0-.038-.07-.328.021-.93 1.02-1.57 1.947-2.21 2.875-8.683 11.693-17.398 23.363-26.04 35.087-7.355 9.982-14.756 19.937-21.779 30.15-.947 1.377.199 4.192.376 6.341 1.838-.42 4.11-.291 5.444-1.347 8.626-6.823 17.089-13.854 25.501-20.941 1.713-1.443 2.981-3.412 5.002-5.505 25.714-21.547 50.88-42.73 76.046-63.912l1.16.85-1.95 6.495-5.433 20.242.918.86c3.76-2.66 7.63-5.178 11.26-8.005 9.733-7.582 19.378-15.279 29.032-22.962 8.28-6.591 16.616-13.118 24.758-19.877 7-5.812 13.54-12.19 20.679-17.817 9.762-7.694 11.929-7.149 18.945 3.134 1.366 2.002 2.773 3.976 4.433 6.513.625.912.979 1.275 1.332 1.638 0 0-.116 0-.141.327 1.138 1.997 2.301 3.667 3.465 5.336 0 0-.015.071-.181.442.964 2.089 2.095 3.806 3.226 5.523l-.18.421c.28.8.719 1.232 1.157 1.664 0 0-.036.09-.217.446 1.833 4.519 3.847 8.682 5.861 12.845 0 0-.114-.001-.13.347.84 1.976 1.694 3.604 2.549 5.231 0 0-.006.186-.236.601.929 2.736 2.088 5.056 3.247 7.377 0 0-.003.195-.237.62 1.426 4.233 3.086 8.042 4.745 11.852 0 0-.085-.008-.092.268.45 1.076.905 1.875 1.362 2.674 4.601 5.996 11.282 5.941 17.866 6.056.645.01 1.362-.626 1.946-1.088 6.603-5.226 13.187-10.476 20.38-15.93.853-.53 1.102-.852 1.352-1.174 0 0 .002.176.19.075.395-.415.601-.73.807-1.044 0 0 .007.15.209.055.393-.415.585-.735.777-1.056 0 0 .014.146.212.05.4-.407.604-.718.807-1.028 0 0 .01.136.208.035.397-.412.595-.722.794-1.033 0 0 .008.135.206.035.398-.409.597-.718.796-1.026 0 0 .01.131.205.024a6.31 6.31 0 0 0 .799-1.027s.009.134.207.027c.395-.423.593-.737.79-1.052.77-.881 1.54-1.762 2.847-2.855.747-.514.957-.817 1.166-1.12-.007-.334.132-.588.897-.926.686-.471.893-.779 1.099-1.086 1.41-1.542 2.822-3.083 4.8-4.85.774-.549.981-.872 1.189-1.194-.011-.32.12-.564.881-.876.695-.465.903-.784 1.11-1.102 0 0 .008.153.205.056.395-.415.592-.732.79-1.049 0 0 .014.15.215.046.399-.43.597-.755.794-1.081-.002-.33.142-.572 1-.778.906-.551 1.244-1.053 1.582-1.554 0 0 .13.06.39.127.463-.275.667-.616.871-.957 0 0 .05.202.248.154.428-.358.66-.666.892-.975 0 0 .001.126.29.126.674-.48 1.06-.958 1.447-1.436 0 0 0 .169.305.24 1.814-.98 3.323-2.032 4.832-3.084 0 0 .042.14.319.191.78-.334 1.283-.72 1.786-1.106 0 0 .009.151.358.195 14.264-3.681 28.395-5.578 42.823-4.949z"/><path fill="#F86C14" d="M572.997 524.027c-6.847 4.307-13.726 8.564-20.531 12.935-6.29 4.04-8.59 4.341-14.386-.174-8.785-6.843-17.253-14.092-25.854-21.58-.204-.408-.409-.404-.614-.4 0 0-.153-.138-.119-.562-.522-.681-1.077-.937-1.633-1.193-2.545-2.415-5.089-4.83-7.879-7.801-.55-.766-.855-.975-1.16-1.183 0 0 .12-.01.015-.208-.406-.396-.707-.594-1.009-.792 0 0 .116-.012.01-.211-.407-.396-.708-.593-1.009-.79 0 0 .116-.011.01-.21a5.916 5.916 0 0 0-1.008-.792s.116-.011.008-.21a5.9 5.9 0 0 0-1.017-.784s.12-.013.015-.211c-.409-.395-.711-.592-1.014-.788 0 0 .12-.018.008-.216a6.3 6.3 0 0 0-1.04-.793c-.555-.455-1.109-.91-1.774-1.952-.576-.858-1.04-1.127-1.505-1.396 0 0-.121-.13-.04-.489-.24-.408-.561-.455-.882-.503 0 0-.172-.118-.105-.493-.259-.437-.584-.5-.91-.562 0 0-.112-.108-.061-.464-.28-.429-.61-.502-.94-.576 0 0-.08-.1-.04-.441-.294-.42-.627-.5-.96-.578 0 0-.061-.1-.03-.444-.306-.461-.643-.58-.981-.697 0 0 .164.019.105-.319-.401-.477-.744-.617-1.086-.757 0 0 .095-.286.07-.441-.367-.31-.71-.465-1.052-.62 0 0 .044.082.107-.312-2.654-4.734-1.805-8.79.694-12.966 2.046-3.418 3.762-7.053 5.387-10.698 1.111-2.493 1.815-5.168 2.7-7.762 0 0 .113-.001.423-.009.434-.629.559-1.25.683-1.872 0 0-.004-.043.307-.037.567-.892.824-1.79 1.08-2.686.004-.168.007-.335-.094-1.142-.938-1.038-1.758-1.75-2.607-1.787-17.016-.735-34.035-1.386-51.054-2.066-8.26-.33-16.535-.474-24.777-1.073-14.507-1.052-17.22-5.693-14.49-16.034 4.625-5.692 9.143-11.475 13.903-17.052 5.335-6.252 10.872-12.332 16.353-18.46 3.621-4.048 7.301-8.045 10.949-12.07 6.41-7.072 12.78-14.178 19.253-21.192 1.08-1.171 2.592-1.946 4.442-2.783 1.477.109 2.446.242 3.353.064 14.057-2.763 28.03-6.08 42.182-8.19 10.4-1.552 21.036-1.489 31.556-2.286 1.048-.08 2.02-1.138 3.028-1.742 0 0 .435-.17 1.063-.194 3.55-.242 4.423-1.74 3.382-4.434 0 0 .056.01.459.047 1.187-1.3 1.972-2.635 2.756-3.971 0 0 .114.096.364.052.486-.611.722-1.18.959-1.747 0 0 .039.06.37.018.981-1.142 1.632-2.242 2.283-3.343 0 0 .112.064.353.054.342-.356.443-.703.543-1.05 0 0 .03-.065.386-.033 2.437-2.983 4.519-5.997 6.6-9.012 0 0 .08.001.38.036.373-.305.446-.645.52-.984 0 0 .047-.145.44-.095 1.448-1.601 2.503-3.253 3.558-4.904 0 0 .045-.14.441-.094 1.623-1.855 2.85-3.756 4.078-5.657 0 0 .032.09.346.044.675-.792 1.038-1.537 1.4-2.282 0 0 .103.088.334.056.342-.382.454-.731.565-1.08 0 0 .068-.06.385-.019 1.707-1.97 3.097-3.98 4.487-5.992 0 0 .065-.059.4-.051.58-.557.826-1.121 1.072-1.686 0 0 .036.096.356.069 1.338-1.454 2.356-2.882 3.373-4.309 0 0 .1.072.388.07.65-.71 1.012-1.417 1.374-2.125 0 0 .091-.042.479-.001 2.51-2.626 4.63-5.292 6.752-7.959 0 0 .114.29.335.156.316-.478.412-.822.508-1.166 0 0 .075-.03.38-.016.385-.321.463-.657.542-.993 0 0 .073-.104.462-.059.955-.875 1.521-1.795 2.087-2.715.023-.319.167-.565 1.012-.816 2.037-2.093 3.498-4.109 4.959-6.125 0 0 .056.095.34.07.695-.463 1.105-.903 1.516-1.342 0 0 .057.173.264.116.363-.401.518-.746.674-1.09 0 0 .048.134.281.078.378-.402.523-.75.668-1.097 0 0 .1.137.327.084.374-.399.52-.745.666-1.09 0 0 .113.13.337.083.37-.393.515-.739.66-1.085 0 0 .12.136.34.086.363-.396.505-.742.646-1.088 0 0 .196.157.385.096.334-.406.479-.751.623-1.097 0 0 .15.13.36.084.364-.389.517-.733.67-1.077 0 0 .069.113.307.076.395-.38.551-.724.708-1.067 0 0 .063.118.3.076.395-.384.554-.727.712-1.07 0 0 .06.125.294.079.391-.39.55-.734.707-1.077 0 0 .062.122.296.077.4-.385.566-.725.732-1.065 0 0 .06.131.286.081.406-.384.587-.718.767-1.051 0 0 .01.168.296.11 2.146-2.025 4.006-3.99 5.866-5.955.037-.32.192-.567 1.032-.815 1.283-.856 1.998-1.637 2.713-2.418 0 0 .093.11.387.109 1.483-1.27 2.672-2.538 3.86-3.805 0 0 .046.086.332.05.66-.487 1.032-.937 1.405-1.387 0 0 .037.158.33.142 1.176-.943 2.06-1.87 2.943-2.798 0 0 .035.082.323.048.692-.47 1.095-.905 1.5-1.341 0 0-.05.14.216.175.801-.592 1.338-1.22 1.874-1.847 7.117-4.975 14.234-9.95 21.901-14.73 4.326-2.087 8.1-4.37 11.876-6.652 0 0-.085.071.308.144 1.184-.135 2.044-.207 2.758-.568 24.707-12.49 50.425-22.514 77.102-29.727 14.163-3.83 28.856-5.701 43.31-8.456 0 0-.075.02.083.254.747.413 1.335.593 1.923.772.339.005.602.148.887 1.05.724 3.844 1.967 7.09 1.855 10.289-.26 7.41-1.302 14.788-1.8 22.195-1.508 22.377-6.47 44.078-12.552 65.575-1.884 6.66-3.618 13.364-5.42 20.048 0 0-.023-.082-.273.106-.417 1.082-.584 1.975-.752 2.869 0 0-.029-.071-.331.085-.712 1.782-1.121 3.407-1.53 5.032 0 0-.02-.121-.269.012-.437.735-.626 1.335-.815 1.936 0 0-.02-.1-.217.002-.139.674-.08 1.245-.021 1.816-11.177 27.827-25.943 53.607-44.526 77.134-9.243 11.702-18.643 23.308-28.541 34.452-6.124 6.895-13.317 12.838-20.584 19.45-.762.536-.97.83-1.18 1.123 0 0-.006-.1-.204.011-.397.404-.595.697-.793.99 0 0-.008-.1-.207.011-.397.403-.595.696-.793.988 0 0-.008-.098-.207.012a6.122 6.122 0 0 0-.794.988s-.007-.099-.206.011c-.397.403-.595.696-.793.99 0 0-.008-.1-.207.01-.398.403-.595.697-.793.99 0 0-.008-.1-.207.01-.396.403-.594.696-.791.99 0 0-.009-.098-.208.011-.396.403-.593.695-.79.988 0 0-.009-.096-.209.014-.396.402-.593.695-.79.987 0 0-.009-.095-.208.015-.397.4-.595.692-.793.983 0 0-.008-.094-.208.016-.397.4-.595.691-.792.982 0 0-.01-.095-.212.025-.394.425-.586.73-.777 1.036-.03.324-.183.572-1.064.86-1.068.903-1.885 1.663-1.944 2.477-1.072 14.805-1.947 29.625-3.095 44.423-.662 8.535-1.513 17.069-2.697 25.545-.84 6.008-2.38 11.919-3.606 17.873 0 0-.1.074-.45.054-.423.312-.495.644-.568.976 0 0-.056.137-.418.108-.62.52-.877 1.07-1.134 1.62 0 0-.024-.078-.233.026-.408.395-.606.688-.805.98 0 0 0-.1-.26.017-.557.83-.854 1.545-1.151 2.259 0 0-.09.058-.45.049-.609.547-.86 1.103-1.11 1.66 0 0-.025-.077-.233.03-.403.4-.599.693-.794.987 0 0-.008-.098-.208.011-.398.402-.596.695-.794.987 0 0-.007-.101-.204.032-.294.474-.39.815-.488 1.157 0 0 .058-.086-.255-.007-.56.65-.806 1.22-1.052 1.79-.014.337-.164.598-.92.965-.675.477-.879.77-1.083 1.065 0 0-.006-.1-.205.01a6.086 6.086 0 0 0-.795.986s-.007-.097-.207.013c-.397.403-.595.696-.793.989 0 0-.007-.102-.206.031-.313.476-.428.82-.543 1.162 0 0 .021-.118-.24-.044-.38.423-.5.772-.619 1.121 0 0-.062.066-.382.018-.877.887-1.434 1.823-1.99 2.758-.025.318-.17.564-.908.907-.685.463-.9.758-1.113 1.053 0 0-.005-.104-.204.005a6.124 6.124 0 0 0-.794.993s-.007-.102-.206.008a6.11 6.11 0 0 0-.793.993s-.007-.106-.206.026c-.315.475-.431.818-.548 1.16 0 0 .013-.137-.254-.048-.515.648-.762 1.207-1.01 1.765 0 0-.031-.041-.344.016-.75.75-1.184 1.44-1.62 2.132-.03.323-.184.565-.932.896-.674.464-.881.758-1.088 1.052 0 0-.005-.102-.205.007-.398.404-.596.698-.793.992 0 0-.008-.1-.208.008a6.012 6.012 0 0 0-.792.992s-.008-.103-.21.023a5.035 5.035 0 0 0-.652 1.124s-.017-.147-.234-.054c-.376.435-.535.777-.695 1.12 0 0-.037-.145-.263-.076-.377.416-.527.763-.678 1.11 0 0-.007-.137-.303-.098-.658.744-1.021 1.449-1.384 2.154 0 0-.09.016-.453.015-.619.563-.874 1.129-1.13 1.694-1.071 1.219-2.143 2.437-3.765 3.888-.766.544-.982.857-1.199 1.17 0 0-.006-.139-.204-.033-.39.42-.581.733-.773 1.047 0 0-.018-.137-.218-.036-.39.417-.58.734-.77 1.051 0 0 .013-.116-.308-.11-1.042 1.072-1.764 2.139-2.485 3.205 0 0-.094-.077-.33-.038-.41.378-.58.717-.752 1.055 0 0-.041-.15-.26-.08-.382.412-.545.754-.708 1.096 0 0-.048-.138-.275-.079-.393.4-.558.742-.724 1.083 0 0-.05-.14-.275-.08-.383.403-.54.747-.696 1.091 0 0-.053-.129-.287-.076-.384.398-.533.744-.683 1.09 0 0-.061-.114-.302-.073-.393.386-.545.731-.697 1.076 0 0-.027-.133-.321-.1-.732.73-1.17 1.43-1.608 2.129 0 0-.19-.074-.393-.063-.313.358-.424.706-.535 1.053 0 0-.226-.236-.439-.128-.325.453-.437.796-.55 1.14 0 0-.151-.227-.406-.129-.365.441-.475.785-.586 1.128 0 0-.123-.146-.396-.087-.383.401-.492.744-.602 1.086 0 0-.091-.11-.386-.069-.42.385-.545.728-.67 1.072 0 0-.067.018-.349-.013-.413.316-.544.661-.676 1.007 0 0-.34-.028-.475-.035-.278.338-.42.683-.563 1.027 0 0-.186-.139-.381-.09-.336.395-.476.742-.616 1.088 0 0-.216-.16-.397-.099-.322.408-.463.754-.604 1.1 0 0-.226-.14-.403-.09-.334.391-.49.733-.647 1.075 0 0-.067-.111-.307-.076-.402.377-.564.72-.726 1.062 0 0-.07-.117-.3-.082-.423.36-.616.684-.81 1.008 0 0-.02-.111-.318-.13-.64.44-.982.898-1.325 1.356 0 0-.225.05-.738-.172-4-.564-7.485-.906-10.97-1.248 0 0 .09-.03-.011-.244a5.056 5.056 0 0 0-1.034-.783s.132-.016.035-.213c-.397-.4-.697-.604-.998-.807 0 0 .087 0 .109-.387.016-.886.056-1.391-.002-1.884-2.31-19.708-4.755-39.401-6.89-59.128-.996-9.215-1.338-18.5-2.14-27.74-.087-1.016-1.247-1.939-1.91-2.905m136.683-236.32c-.35-.118-.698-.237-.914-.35 0 0-.086.1-.18-.57-.6-.2-1.2-.4-1.69-.634 0 0-.01.113-.264-.491-.603-.176-1.206-.351-1.703-.557 0 0-.001.11-.291-.476-.609-.158-1.218-.315-1.726-.495 0 0-.017.102-.233-.604-4.637-1.485-9.247-4.025-13.918-4.14-4.186-.105-8.438 2.46-12.682 3.746 0 0 .103.017-.62-.065-.81.361-1.62.722-2.424.987 0 0 .093.023-.57.039-.403.441-.806.882-1.35 1.217 0 0 .173.038-.511-.118-.426.428-.85.857-1.385 1.202 0 0 .123-.06-.441-.06-.24.27-.481.54-.721.728 0 0 .079.024-.577.034-.448.402-.896.805-1.358 1.082 0 0 .121.04-.565-.034-.41.441-.82.882-1.333 1.222 0 0 .139-.036-.44-.018-.22.297-.44.595-.668.79 0 0 .095.038-.58-.003-.306.457-.613.914-1.018 1.43 0 0-.07.091-.732-.138-.432.677-.865 1.354-1.28 1.946 0 0-.063.06-.66.022-.086.34-.172.68-.328 1.088 0 0-.024.094-.676-.013-.245.56-.49 1.12-.76 1.593 0 0 .09-.001-.426.232-.153.333-.306.667-.474.83 0 0 .165.039-.463.245-.2.596-.398 1.193-.626 1.692 0 0 .1 0-.467.29-.18.59-.36 1.18-.564 1.692 0 0 .083-.006-.476.323-.135.612-.27 1.224-.429 1.726 0 0 .11.021-.624.244-5.575 11.4-4.196 22.609 1.054 33.648.406.854 1.682 1.293 2.461 1.969 0 0 .044-.092.062.573.45.379.899.758 1.232 1.224 0 0 0-.145.027.453.33.183.66.367.876.531 0 0 .086-.078-.053.685 1.07.66 2.138 1.32 3.185 2.042 0 0 .055.035.059.712.585.224 1.17.447 1.66.704 0 0 .005-.102.222.428.346.112.692.223.966.264 0 0 .095-.035.084.705 7.054 5.872 15.509 8.05 24.284 7.436 4.505-.315 8.828-3.229 13.251-4.862 0 0-.104-.024.644.073 1.414-1.095 2.827-2.189 4.317-3.134 0 0-.165.027.405-.115.216-.313.432-.625.971-1.504 5.768-5.131 10.51-10.755 12.002-18.793 1.602-8.635 1.368-17.027-.684-25.82-.688-1.03-1.377-2.059-2.055-3.163 0 0 .06-.043.121-.612-.288-.221-.577-.443-.763-.676 0 0-.031.098.02-.605-.725-.783-1.45-1.567-2.025-2.4 0 0 .008.157-.155-.394-.304-.215-.609-.431-1.414-.853-.449-.553-.897-1.106-1.553-2.177-.3-.206-.602-.412-.785-.624 0 0-.014.117-.232-.4-.318-.178-.636-.357-.81-.547 0 0-.025.144-.227-.402z"/><path fill="#EF5418" d="M444.623 630.21c.303-2.171.954-4.336 1.604-6.5l-1.16-.85c-25.166 21.181-50.332 42.364-75.781 63.675 10.312-12.86 20.638-26.082 31.594-38.76 7.68-8.887 16.319-16.94 24.347-25.535 8.145-8.72 15.94-17.768 24.113-26.46 16.794-17.863 33.783-35.542 50.577-53.405 2.754-2.929 4.966-3.135 7.977-.5 4.627 4.05 9.532 7.78 14.233 11.75 4.108 3.468 4.073 4.667-.069 8.162-18.431 15.552-37.048 30.89-55.243 46.713-7.73 6.723-14.59 14.447-22.192 21.71zM400.553 614.446c-4.86.964-9.72 1.928-15 2.93 8.21-12.563 16.497-25.418 25.552-37.708 13.539-18.378 27.554-36.407 41.501-54.48 4.976-6.448 10.353-12.586 15.528-18.88 2.358-2.868 4.582-2.858 6.86.117 4.037 5.275 8.005 10.611 12.243 15.722 2.371 2.86 1.658 4.677-.7 7.148-23.33 24.44-46.663 48.877-69.728 73.564-10.673 11.424-20.757 23.398-31.45 35.153a209.775 209.775 0 0 1 8.408-12.76c2.295-3.225 4.775-6.32 7.454-9.914-.035-.59-.351-.741-.668-.892z"/><path fill="#0D2227" d="M250.478 847.935c1.281-.372 3.026-.937 4.771-.937 178.553-.04 357.105-.037 535.658-.02 1.482 0 2.965.212 4.753.605-14.35.427-29.006.643-43.663.703-18.327.075-36.655.022-55.833-.068-1.651-.01-2.452.07-3.253.152-20.966-.022-41.932-.044-63.78-.157-2.328-.012-3.773.068-5.218.148-11.298-.02-22.595-.04-34.652-.13-.96-.002-1.159.065-1.358.132-88.99-.023-177.982-.029-266.973-.083-23.33-.014-46.659-.179-70.452-.345z"/><path fill="#EF5418" d="M802.891 179.624c-14.24 3.067-28.932 4.938-43.095 8.768-26.677 7.213-52.395 17.236-77.102 29.727-.714.361-1.574.433-2.748.513 2.658-1.931 5.524-4.17 8.767-5.468 18.841-7.537 37.489-15.723 56.758-21.976 16.427-5.332 33.588-8.425 50.47-12.31 2.1-.483 4.483.26 6.95.746zM402.565 428.944c-2.338 10.285.376 14.926 14.883 15.978 8.242.599 16.517.743 24.777 1.073 17.019.68 34.038 1.331 51.054 2.066.85.037 1.67.75 2.607 1.535-11.899.064-23.909-.098-35.902-.634-10.812-.483-21.606-1.375-32.408-2.085-5.887-.387-11.786-.64-17.656-1.202-4.349-.416-7.515-2.606-9.044-6.96-1.238-3.527-1.94-6.847 1.69-9.77zM788.383 299.912a430.306 430.306 0 0 1 5.12-19.841c6.082-21.497 11.043-43.198 12.55-65.575.5-7.407 1.541-14.785 1.8-22.195.113-3.199-1.13-6.445-1.778-10.07.97 2.085 2.8 4.562 2.817 7.051.157 23.471-2.836 46.632-8.429 69.383-3.395 13.811-7.818 27.369-12.08 41.247zM573.007 524.48c.652.513 1.812 1.436 1.9 2.452.8 9.24 1.143 18.525 2.14 27.74 2.134 19.727 4.58 39.42 6.89 59.128.057.493.017.998-.012 1.925-1.263-3.953-3.134-8.265-3.61-12.726-2.32-21.716-4.28-43.472-6.333-65.216-.403-4.276-.647-8.566-.975-13.303zM665.912 546.157c.97-5.74 2.51-11.65 3.349-17.658 1.184-8.476 2.035-17.01 2.697-25.545 1.148-14.798 2.023-29.618 3.095-44.423.059-.814.876-1.574 1.727-2.414.004 1.327-.63 2.69-.727 4.092-1.413 20.332-2.63 40.68-4.185 61-.514 6.709-1.717 13.38-2.92 20.01-.306 1.687-1.82 3.155-3.036 4.938z"/><path fill="#0D2227" d="M251.601 540.026c-.95 3.159-2.062 6.576-3.453 9.875-7.694 18.249-11.206 37.216-10.227 57.03.159 3.21-.427 6.458-1.006 9.84-2.83-26.161 1.57-51.231 13.234-74.985.28-.571.77-1.04 1.452-1.76z"/><path fill="#EF5418" d="M547.53 345.135c-.56.646-1.533 1.705-2.58 1.784-10.52.797-21.157.734-31.557 2.285-14.153 2.11-28.125 5.428-42.182 8.191-.907.178-1.876.045-3.05-.228 13.579-3.216 27.295-6.776 41.231-8.892 12.438-1.89 25.117-2.183 38.138-3.14z"/><path fill="#0D2227" d="M391.907 472.564c-8.061.047-16.347-.272-24.634-.576-12.58-.46-24.745 1.956-36.785 5.274-1.255.346-2.585.417-4.281.484 16.13-6.615 33.347-8.348 50.914-7.306 4.872.29 9.708 1.16 14.786 2.124zM152.491 692.995c-.665 5.914-2.197 12.07-2.424 18.274-.436 11.873-.126 23.774-.143 35.663 0 .484-.179.968-.53 1.725-.95-4.068-2.031-8.389-2.267-12.755-.785-14.486.95-28.72 5.364-42.907zM235.535 617.873c-4.847 1.732-10.301 3.072-15.345 5.327-7.534 3.37-14.776 7.39-22.148 11.122-1.583.802-3.19 1.558-5.118 2.133 8.928-7.922 19.673-12.766 31.098-16.192 3.61-1.082 7.388-1.597 11.513-2.39z"/><path fill="#EF5418" d="M493.198 455.764c-.596 2.424-1.3 5.1-2.41 7.592-1.626 3.645-3.342 7.28-5.388 10.698-2.499 4.175-3.348 8.232-.74 12.973-5.263-4.065-5.385-5.198-2.277-10.927 3.616-6.664 7.026-13.44 10.815-20.336z"/><path fill="#0D2227" d="M695.87 600.577c-14.212-.246-28.343 1.65-42.682 5.317 9.87-5.003 20.884-6.073 32.087-6.043 3.46.01 6.919.222 10.594.726zM210.928 836.7c1.483.1 3.244.309 4.923.798a2898.233 2898.233 0 0 1 25.868 7.686c.414.125.718.618 1.164 1.301-10.51-2.941-21.112-6.244-31.955-9.785zM149.122 752.474c.59-.061 1.465.19 1.585.644 1.986 7.45 3.876 14.926 5.549 22.62-2.56-7.47-4.88-15.164-7.134-23.264zM787.04 692.516c-.572.008-1.683-.312-1.777-.82a871.342 871.342 0 0 1-4.134-24.51c1.99 8.014 3.918 16.465 5.911 25.33zM163.146 668.71c.038 1.188.056 2.689-.513 3.918a296.148 296.148 0 0 1-8.604 17.153c2.698-6.919 5.763-13.9 9.117-21.07zM805.918 694.584c-4.812.374-9.853.466-14.888.33-1.29-.034-2.562-.787-3.902-1.615 6.148.036 12.356.477 18.79 1.285zM195.693 827.763c4.881 2.465 9.908 5.256 14.891 8.419-4.944-2.45-9.844-5.272-14.89-8.42z"/><path fill="#EF5418" d="M679.288 218.655c-3.435 2.17-7.21 4.453-11.18 6.478 3.482-2.293 7.16-4.33 11.18-6.478z"/><path fill="#0D2227" d="M563.136 620.56c-1.959-3.789-3.973-7.952-5.842-12.504 2.026 3.785 3.906 7.957 5.842 12.504zM413.01 477.486c-4.675-.78-9.61-1.83-14.775-3.166 4.685.775 9.598 1.835 14.774 3.166zM866.901 760.495c-1.004-4.623-1.946-9.685-2.864-15.181a322.08 322.08 0 0 1 2.864 15.18zM821.023 698.501a149.22 149.22 0 0 1-13.9-3.187c4.472.787 9.06 1.85 13.9 3.187z"/><path fill="#EF5418" d="M598.317 284.752c-1.815 2.516-3.937 5.182-6.414 7.768-.332-4.42 3.743-5.285 6.414-7.768z"/><path fill="#0D2227" d="M573.05 646.592c-1.58-3.44-3.24-7.25-4.755-11.443 1.655 3.434 3.166 7.254 4.755 11.443zM808.437 845.117c3.39-1.33 7.182-2.697 11.394-3.999-3.384 1.364-7.188 2.663-11.394 3.999z"/><path fill="#EF5418" d="M586.026 618.431c3.296.029 6.782.37 10.705.848-3.391 2.812-6.977 1.517-10.705-.848zM567.191 321.698c-1.777 2.88-3.859 5.895-6.302 8.842 1.759-2.948 3.879-5.828 6.302-8.842z"/><path fill="#0D2227" d="M717.006 604.481c-4.009-.482-8.284-1.24-12.776-2.313 4.025.47 8.267 1.253 12.776 2.313zM781.236 666.475a127.84 127.84 0 0 1-4.195-9.205c1.388 2.682 2.75 5.76 4.195 9.205z"/><path fill="#EF5418" d="M628.592 253.883c-1.516 1.894-3.376 3.859-5.602 5.856 1.509-1.907 3.383-3.846 5.602-5.856zM608.605 273.015a41.34 41.34 0 0 1-4.446 5.91c1.137-1.915 2.64-3.84 4.446-5.91z"/><path fill="#0D2227" d="M314.48 481.774a76.734 76.734 0 0 1-7.622 4.145c2.146-1.377 4.7-2.719 7.621-4.145zM862.404 797.955c.429-2.704 1.174-5.603 2.199-8.72-.441 2.697-1.162 5.611-2.199 8.72zM568.485 634.158c-1.023-1.989-2.182-4.31-3.196-7.007 1.117 1.973 2.089 4.324 3.196 7.007z"/><path fill="#EF5418" d="M584.153 300.748c-1.114 1.856-2.504 3.868-4.256 5.834 1.085-1.923 2.533-3.8 4.256-5.834z"/><path fill="#0D2227" d="M859.35 804.912c.51-2.078 1.312-4.36 2.469-6.748-.49 2.11-1.333 4.327-2.47 6.748zM190.02 823.382a32.743 32.743 0 0 1 5.646 3.741c-1.83-.9-3.652-2.172-5.646-3.741z"/><path fill="#EF5418" d="M576.616 310.031c-.931 1.736-2.159 3.637-3.743 5.43.911-1.826 2.179-3.545 3.743-5.43zM552.141 340.688c1.322 2.554.45 4.053-2.87 4.267.599-1.38 1.594-2.754 2.87-4.267zM572.127 315.776c-.789 1.492-1.844 3.144-3.248 4.683.76-1.583 1.87-3.053 3.248-4.683z"/><path fill="#0D2227" d="M553.377 599.287c-1.016-1.363-2.18-3.033-3.304-5.086 1.078 1.337 2.117 3.058 3.304 5.086zM169.163 659.673a24.555 24.555 0 0 1-2.93 5.26c.638-1.696 1.635-3.397 2.93-5.26z"/><path fill="#EF5418" d="M589.315 294.719c-.702 1.324-1.72 2.752-3.103 4.182.686-1.357 1.736-2.719 3.103-4.182zM636.589 246.929c-.85 1.221-2.038 2.489-3.593 3.769.84-1.233 2.047-2.478 3.593-3.769z"/><path fill="#0D2227" d="M650.45 606.732c-1.159.949-2.668 2-4.547 2.927 1.151-1.025 2.673-1.924 4.546-2.927zM820.481 841.22c1.05-.983 2.444-2.046 4.186-3.147-1.049.997-2.445 2.033-4.186 3.148zM405.751 558.312c.329-1.312.974-2.767 1.988-4.242-.312 1.352-.991 2.726-1.988 4.242zM565.467 626.193c-.712-1.308-1.566-2.936-2.392-4.968.769 1.281 1.509 2.965 2.392 4.968zM740.995 615.611c-1.481-.491-3.117-1.284-4.852-2.424 1.5.477 3.098 1.3 4.852 2.424zM322.172 478.528c-1.305.715-2.925 1.574-4.949 2.4 1.275-.775 2.954-1.515 4.949-2.4zM831.345 703.57a26.207 26.207 0 0 1-5.892-2.783c1.907.572 3.8 1.526 5.892 2.783zM556.421 605.253c-.982-1.412-2.113-3.13-3.114-5.214 1.076 1.39 2.02 3.15 3.114 5.214z"/><path fill="#EF5418" d="M555.317 336.728c-.464 1.233-1.25 2.569-2.409 3.875.447-1.277 1.267-2.525 2.409-3.875z"/><path fill="#0D2227" d="M437 488.612c-1.484-.486-3.12-1.276-4.86-2.4 1.5.475 3.103 1.285 4.86 2.4z"/><path fill="#EF5418" d="M559.3 331.71c-.338.996-.989 2.096-2.004 3.225.321-1.02 1.006-2.07 2.005-3.224zM619.596 598.187c.448-.92 1.17-1.987 2.265-3.034-.415.977-1.204 1.932-2.265 3.034z"/><path fill="#0D2227" d="M420.965 480.613c-1.444-.192-3.064-.694-4.746-1.574 1.481.168 3.026.716 4.746 1.574zM425.923 482.642c-1.413-.169-3.024-.633-4.758-1.453 1.438.15 3 .654 4.758 1.453zM856.371 809.978c.495-1.471 1.287-3.106 2.412-4.844-.482 1.49-1.299 3.086-2.412 4.844z"/><path fill="#EF5418" d="M785.468 307.986c.137-1.4.546-3.025 1.296-4.804-.114 1.425-.569 3.002-1.296 4.804z"/><path fill="#0D2227" d="M863.073 741.612c-.657-1.084-1.359-2.523-2.037-4.346.68 1.075 1.336 2.533 2.037 4.346zM186.712 820.643c1.006.373 2.117 1.067 3.219 2.135-1.044-.355-2.078-1.084-3.219-2.135zM728.023 608.534c-1.402-.205-3.037-.677-4.794-1.503 1.439.175 3 .705 4.794 1.503zM825.032 700.27a11.264 11.264 0 0 1-3.8-1.256c1.148.094 2.358.565 3.8 1.255z"/><path fill="#EF5418" d="M641.6 242.934c-.546.883-1.43 1.81-2.68 2.72.536-.903 1.438-1.789 2.68-2.72z"/><path fill="#0D2227" d="M165.646 665.047c-.288 1.073-.858 2.326-1.813 3.55.254-1.142.892-2.255 1.813-3.55zM422.345 532.973c.175-.847.62-1.86 1.43-2.888-.143.897-.652 1.81-1.43 2.888zM396.952 473.607c-1.368.187-2.93.023-4.717-.464 1.357-.178 2.94-.032 4.717.464zM172.72 655.315c-.202.777-.69 1.694-1.523 2.608.182-.825.71-1.647 1.524-2.608z"/><path fill="#EF5418" d="M495.741 451.189c-.017.698-.274 1.595-.861 2.478-.013-.769.305-1.524.861-2.478z"/><path fill="#0D2227" d="M574.377 649.615c-.435-.51-.89-1.31-1.328-2.426.448.5.877 1.319 1.328 2.426zM771.057 645.62c-.622-.472-1.329-1.25-2.001-2.403.661.45 1.289 1.274 2 2.403z"/><path fill="#9EAFAE" d="M624.19 848.559c1.168-.278 2.613-.358 4.479-.316-1.12.253-2.66.383-4.478.316z"/><path fill="#0D2227" d="M192.049 636.63c-.387.617-1.04 1.415-2.065 2.13.35-.704 1.075-1.327 2.065-2.13z"/><path fill="#EF5418" d="M645.53 239.947c-.215.606-.752 1.233-1.602 1.77.219-.644.75-1.196 1.603-1.77z"/><path fill="#0D2227" d="M413.372 546.004c.183-.828.654-1.803 1.46-2.867-.167.847-.67 1.784-1.46 2.867z"/><path fill="#EF5418" d="M578.347 307.725c-.051.648-.414 1.393-1.133 2.165.036-.672.429-1.37 1.133-2.165zM602.665 279.95c-.294.778-.86 1.698-1.78 2.52.268-.858.888-1.619 1.78-2.52z"/><path fill="#0D2227" d="M854.377 813.01c.178-.83.647-1.803 1.449-2.87-.164.846-.66 1.786-1.449 2.87zM417.366 539.998c.187-.824.663-1.795 1.474-2.858-.172.843-.679 1.778-1.474 2.858zM254.648 536.047c-.16.588-.624 1.242-1.419 1.9.152-.607.632-1.22 1.419-1.9zM852.365 815.994c.188-.826.664-1.798 1.477-2.857-.172.846-.68 1.778-1.477 2.857z"/><path fill="#EF5418" d="M632.384 250.685c-.418.675-1.133 1.456-2.201 2.247.4-.706 1.152-1.424 2.201-2.247z"/><path fill="#0D2227" d="M854.072 724.64c-.61-.5-1.323-1.31-2.033-2.469.646.487 1.289 1.325 2.033 2.47zM744.013 617.62c-.835-.179-1.81-.65-2.874-1.46.852.164 1.793.665 2.874 1.46z"/><path fill="#EF5418" d="M647.343 568.037c.278-.79.835-1.726 1.756-2.625-.25.85-.863 1.666-1.756 2.625z"/><path fill="#0D2227" d="M768.088 641.637c-.619-.489-1.326-1.29-2.02-2.44.653.477 1.292 1.301 2.02 2.44z"/><path fill="#EF5418" d="M380.903 642.967c.255-.909.895-1.837 1.863-2.846-.274.888-.876 1.857-1.863 2.846z"/><path fill="#0D2227" d="M411.377 549.01c.181-.833.653-1.808 1.462-2.871-.166.851-.668 1.79-1.462 2.871zM775.065 652.65c-.579-.563-1.226-1.437-1.74-2.657.646.552 1.16 1.449 1.74 2.657zM153.528 689.962c.105.732-.049 1.691-.563 2.774-.14-.766.083-1.656.563-2.774z"/><path fill="#9EAFAE" d="M693.132 848.561c.58-.272 1.38-.353 2.57-.312-.525.25-1.437.376-2.57.312z"/><path fill="#0D2227" d="M723.038 606.543c-.733.088-1.684-.09-2.746-.632.77-.122 1.649.123 2.746.632zM720.063 605.45c-.732.122-1.7-.004-2.79-.496.77-.161 1.662.043 2.79.496z"/><path fill="#EF5418" d="M611.679 606.307c.164-.58.602-1.278 1.388-1.97-.139.622-.627 1.236-1.388 1.97z"/><path fill="#0D2227" d="M179.634 813.796c.548.19 1.257.608 1.864 1.38-.635-.148-1.169-.651-1.864-1.38zM851.08 720.682c-.534-.265-1.197-.801-1.76-1.699.61.235 1.12.832 1.76 1.7z"/><path fill="#EF5418" d="M630.869 586.297c.122-.56.485-1.265 1.198-1.969-.085.609-.521 1.217-1.198 1.97zM639.334 577.056c.167-.555.602-1.247 1.373-1.983-.144.585-.624 1.216-1.373 1.983z"/><path fill="#0D2227" d="M864.078 744.632c-.317-.448-.683-1.238-1.034-2.39.339.443.662 1.245 1.034 2.39z"/><path fill="#EF5418" d="M660.877 552.256c.056-.558.353-1.273.96-2.097-.034.574-.377 1.258-.96 2.097z"/><path fill="#0D2227" d="M416.044 478.518c-.736.11-1.695-.042-2.769-.558.773-.144 1.66.077 2.77.558zM325.182 477.419c-.367.416-1.028.921-2.056 1.272.342-.497 1.052-.84 2.056-1.272z"/><path fill="#EF5418" d="M787.34 302.9c-.115-.7.052-1.593.512-2.678.118.7-.055 1.592-.511 2.677zM591.146 292.705c-.116.564-.478 1.272-1.187 2 .083-.605.512-1.23 1.187-2z"/><path fill="#0D2227" d="M641.27 612.581c-.083.354-.42.856-1.11 1.367.052-.4.454-.81 1.11-1.367z"/><path fill="#EF5418" d="M585.648 298.973c.007.448-.238 1.012-.816 1.525-.034-.504.264-.956.816-1.525z"/><path fill="#0D2227" d="M765.095 637.682c-.27-.098-.623-.466-1.013-1.108.286.096.608.468 1.013 1.108zM749.622 621.667c-.434.07-.915-.127-1.484-.584.42-.067.928.125 1.484.584zM747.007 619.664c-.445 0-1.023-.261-1.603-.87.489-.03.98.29 1.603.87z"/><path fill="#EF5418" d="M597.802 619.442c.086-.362.428-.82 1.118-1.232-.056.409-.458.773-1.118 1.232zM784.39 310.013c-.09-.455.1-1.055.597-1.777.1.464-.11 1.047-.597 1.777zM783.96 311.664c-.145-.258-.204-.829-.014-1.5.2.33.15.76.015 1.5z"/><path fill="#0D2227" d="M735.996 612.65c-.454.051-1.053-.172-1.736-.726.475-.07 1.033.19 1.736.726zM431.955 485.676c-.444.1-1.053-.065-1.795-.525.455-.11 1.042.075 1.795.525zM732.131 610.456c-.457.104-1.107-.034-1.853-.518.49-.14 1.075.068 1.853.518zM645.389 609.598c-.112.353-.499.832-1.235 1.297.087-.4.524-.786 1.235-1.297zM730.116 609.467c-.457.123-1.11.001-1.88-.454.482-.152 1.083.029 1.88.454z"/><path fill="#EF5418" d="M556.702 335.077c.021.42-.215.989-.77 1.628-.042-.445.235-.962.77-1.628z"/><path fill="#0D2227" d="M652.594 605.78c-.192.32-.695.706-1.547 1.027.18-.364.708-.663 1.547-1.027zM557.435 607.382c-.326-.17-.765-.602-1.06-1.377.413.143.68.629 1.06 1.377zM550.134 593.663c-.286-.096-.64-.459-1.031-1.097.296.093.63.462 1.03 1.097z"/><path fill="#EF5418" d="M629.295 588.018c.006-.432.261-.998.849-1.528.021.488-.29.941-.85 1.528zM641.288 574.907c-.011-.421.236-.98.806-1.587.033.45-.257.95-.806 1.587zM804.942 180.703c-.418.08-1.006-.1-1.755-.551.421-.085 1.004.104 1.755.551zM643.472 241.677c-.116.356-.52.791-1.252 1.242.102-.377.533-.77 1.252-1.242zM638.388 245.637c-.096.36-.469.81-1.171 1.274.077-.385.485-.784 1.17-1.274z"/><path fill="#0D2227" d="M176.124 810.312c.528-.03 1.04.246 1.566.84-.518.033-1.05-.25-1.566-.84z"/><path fill="#EF5418" d="M610.467 271.666c-.114.368-.524.808-1.267 1.246.1-.392.535-.783 1.267-1.246z"/><path fill="#0D2227" d="M861.07 736.665c-.302-.174-.658-.658-1.007-1.47.322.168.637.663 1.007 1.47zM860.08 734.662c-.293-.174-.654-.656-1.014-1.465.317.168.632.663 1.015 1.465zM859.07 732.667c-.282-.177-.635-.654-1.004-1.454.3.17.617.662 1.005 1.454zM857.387 729.413c-.36-.104-.838-.486-1.311-1.215.4.082.797.508 1.311 1.215zM855.424 726.268c-.353-.076-.85-.401-1.344-1.074.402.044.801.434 1.344 1.074zM189.491 638.676c-.09.326-.449.76-1.118 1.252.077-.343.462-.743 1.118-1.252zM170.653 657.99c.006.443-.248 1.027-.85 1.624-.035-.487.278-.986.85-1.625zM777.075 656.663c-.294-.175-.652-.658-1.008-1.468.316.169.63.664 1.008 1.468zM776.076 654.66c-.292-.175-.651-.655-1.011-1.462.314.169.63.663 1.011 1.462zM773.407 649.37c-.36-.095-.845-.462-1.328-1.174.403.07.802.486 1.328 1.174zM772.098 647.66c-.29-.179-.66-.662-1.024-1.476.318.17.63.671 1.024 1.476zM734.128 611.473c-.46.096-1.105-.057-1.847-.556.49-.129 1.075.088 1.847.556zM408.32 553.948c-.086-.438.093-1.041.568-1.78.096.448-.104 1.032-.568 1.78zM424.337 530.01c.001-.447.263-1.025.873-1.598.028.492-.292.979-.873 1.598zM404.345 560.005c-.02-.451.23-1.04.824-1.666.045.485-.255 1.007-.824 1.666zM316.632 480.852c-.195.31-.702.67-1.554.988.184-.341.712-.64 1.554-.988z"/><path fill="#EF5418" d="M663.334 549.028c.008-.448.266-.998.845-1.457.016.512-.29.933-.845 1.457z"/><path fill="#0D2227" d="M409.345 552.038c.007-.456.275-1.026.889-1.55.02.508-.304.972-.89 1.55z"/><path fill="#EF5418" d="M491.633 494.945c.343.04.807.31 1.285.912-.38-.006-.772-.344-1.285-.912zM509.985 513.296c.43.013.986.269 1.48.85-.493.015-.924-.296-1.48-.85zM655.305 558.966c-.01-.429.235-.998.812-1.6.036.466-.26.962-.812 1.6z"/><path fill="#0D2227" d="M426.328 527.049c.031-.447.308-.996.91-1.437-.004.516-.335.926-.91 1.437zM427.968 483.663c-.448.11-1.056-.05-1.803-.502.455-.117 1.05.057 1.803.502z"/><path fill="#EF5418" d="M659.328 554.007c-.002-.443.249-1 .827-1.503.027.498-.274.943-.827 1.503z"/><path fill="#0D2227" d="M415.346 543.017c-.009-.453.249-1.036.855-1.626.036.494-.276.995-.855 1.626z"/><path fill="#EF5418" d="M494.37 453.894c.099.44-.026 1.062-.498 1.733-.14-.485.067-1.019.497-1.733z"/><path fill="#0D2227" d="M419.34 537.033c.01-.45.279-1.016.892-1.54.02.503-.307.963-.892 1.54zM402.35 563.027c-.008-.456.252-1.035.861-1.618.035.495-.278.995-.86 1.618zM252.698 538.065c.067.423-.115 1.026-.595 1.753-.084-.441.13-1.008.595-1.753zM429.97 484.662c-.449.108-1.058-.053-1.805-.509.455-.116 1.05.062 1.804.51zM429.325 523.056c-.01-.362.213-.822.596-1.106-.015.453-.19.73-.596 1.106zM428.55 524.252c-.132-.22-.028-.593.353-1.087.145.23.014.582-.353 1.087z"/><path fill="#EF5418" d="M511.66 514.897c.157-.093.362-.097.408.012-.16.113-.359.077-.407-.012z"/><path fill="#0D2227" d="M425.631 528.24c-.14-.204-.065-.573.276-1.073.158.215.05.561-.276 1.073z"/><path fill="#EF5418" d="M500.926 504.33c.2-.053.505.156.91.63-.2.053-.503-.159-.91-.63zM499.932 503.323c.197-.056.498.142.898.598-.198.058-.496-.143-.898-.598zM383.395 640.193c-.2-.45-.059-.797.378-1.15.185.413.073.833-.378 1.15zM678.307 455.073c-.055-.184.137-.49.578-.913.056.185-.137.49-.578.913z"/><path fill="#0D2227" d="M618.688 634.93c.054.2-.15.51-.624.915-.058-.206.154-.505.624-.915zM617.666 635.907c.068.212-.124.532-.592.941-.073-.218.13-.525.592-.941zM616.678 636.908c.056.205-.15.52-.632.927-.06-.211.155-.514.632-.927z"/><path fill="#EF5418" d="M384.356 639.106c-.195-.428-.072-.819.37-1.152.195.435.071.813-.37 1.152z"/><path fill="#0D2227" d="M615.657 637.882c.036.208-.213.53-.764.95-.041-.213.219-.524.764-.95zM766.061 638.687c-.207.064-.517-.131-.921-.593.21-.067.514.133.921.593zM420.685 535.193c-.148-.197-.087-.55.231-1.03.164.205.07.54-.231 1.03zM421.307 534.064c-.071-.21.118-.525.572-.931.072.214-.12.52-.572.93zM769.069 642.683c-.21.067-.521-.127-.929-.586.211-.07.52.128.929.586zM849.375 718.398c-.253.077-.616-.083-.938-.565.304-.106.567.11.938.565zM427.86 525.295c-.136-.22-.078-.578.296-.965.245.29.106.575-.297.965z"/><path fill="#EF5418" d="M618.425 263.7c.098.25-.058.594-.518.962-.115-.273.074-.571.518-.962zM615.38 266.687c.106.251-.036.597-.482.96-.125-.278.055-.572.482-.96z"/><path fill="#0D2227" d="M181.616 815.76c.247-.102.613 0 .929.426-.366.228-.619.047-.93-.427zM182.627 816.761c.243-.105.61 0 .95.43-.35.227-.616.045-.95-.43zM851.301 817.063c-.06-.201.135-.512.593-.921.063.204-.137.508-.593.92zM183.627 817.708c.243-.101.615.02.98.47-.288.136-.57-.055-.98-.47zM850.3 818.033c-.064-.221.141-.515.609-.897.062.217-.14.52-.61.897zM184.642 818.667c.241-.104.615.029 1.017.487-.277.133-.58-.058-1.017-.487zM185.672 819.59c.24-.104.61.047 1.047.512-.262.124-.588-.067-1.047-.512z"/><path fill="#EF5418" d="M616.387 265.684c.104.253-.04.598-.49.955-.123-.28.06-.57.49-.955zM617.413 264.689c.1.253-.054.597-.512.956-.117-.278.071-.572.512-.956zM614.392 267.689c.104.251-.042.597-.492.96-.122-.278.06-.572.492-.96zM619.436 262.706c.098.25-.061.593-.522.964-.114-.271.076-.57.522-.964zM620.437 261.71c.098.248-.06.592-.52.968-.113-.27.075-.571.52-.968zM621.462 260.72c.093.247-.073.587-.54.96-.107-.268.087-.568.54-.96z"/><path fill="#0D2227" d="M807.316 845.843c-.123-.322.095-.526.614-.719.024.195-.168.47-.614.72z"/><path fill="#EF5418" d="M622.51 259.747c.084.243-.097.577-.575.951-.095-.26.108-.56.575-.95z"/><path fill="#9EAFAE" d="M588.01 848.532c.092-.236.292-.303.79-.27-.028.213-.355.325-.79.27z"/><path fill="#0D2227" d="M437.767 489.063c-.047.11-.326.135-.654-.035-.048-.195.422-.049.654.035z"/><path fill="#EF5418" d="M485.666 488.633c.257-.1.6.04.926.483-.292.122-.566-.06-.926-.483zM484.686 487.584c.255-.097.598.057.944.517-.283.114-.57-.076-.944-.517zM599.247 283.692c.123.243.027.587-.371.933-.265-.338-.114-.616.37-.933z"/><path fill="#0D2227" d="M416.617 541.245c-.144-.209-.066-.579.278-1.079.16.22.051.568-.278 1.079z"/><path fill="#EF5418" d="M498.932 502.323c.197-.058.498.139.901.593-.198.058-.497-.14-.9-.593zM497.933 501.321c.198-.058.498.14.9.594-.197.059-.497-.14-.9-.594zM496.926 500.327c.199-.06.502.135.909.587-.2.06-.502-.136-.91-.587z"/><path fill="#0D2227" d="M856.086 727.697c-.2.008-.476-.243-.713-.789.239-.02.438.255.713.789z"/><path fill="#EF5418" d="M495.926 499.328c.199-.059.501.138.905.593-.2.06-.5-.138-.905-.593z"/><path fill="#0D2227" d="M858.047 730.698c-.212.014-.481-.245-.741-.804.234-.023.459.254.74.804z"/><path fill="#EF5418" d="M494.91 498.316c.188-.054.498.144.918.602-.191.056-.495-.147-.918-.602zM490.655 493.893c.255-.121.575-.074.78.253-.376.256-.575.135-.78-.253zM489.644 492.846c.256-.115.581-.052.796.29-.383.255-.588.123-.796-.29z"/><path fill="#0D2227" d="M848.353 717.18c-.17.091-.401.066-.473-.08.16-.12.41-.037.473.08z"/><path fill="#EF5418" d="M488.647 491.817c.256-.114.586-.04.826.321-.378.253-.598.113-.826-.32zM600.189 282.668c.12.25.042.586-.334.868-.258-.359-.114-.602.334-.868zM487.652 490.803c.254-.114.587-.036.84.335-.375.256-.602.112-.84-.335zM611.444 270.721c.102.244-.053.589-.507.984-.115-.26.067-.571.507-.984zM612.4 269.702c.106.247-.039.595-.485.978-.124-.268.055-.573.484-.978zM486.64 489.686c.26-.1.597.019.87.431-.39.247-.634.077-.87-.43zM613.395 268.69c.103.251-.043.597-.494.961-.122-.277.061-.572.494-.961z"/><path fill="#0D2227" d="M177.67 811.535c.247-.075.605.11.973.617-.281.097-.57-.131-.973-.617zM178.622 812.628c.252-.086.62.066.962.543-.3.115-.572-.096-.962-.543z"/><path fill="#EF5418" d="M689.301 444.037c-.049-.194.16-.488.623-.888.048.191-.159.49-.623.888zM624.35 593.105c-.052-.21.164-.522.655-.931.055.21-.166.519-.655.93zM623.365 594.12c-.07-.21.122-.524.58-.934.072.213-.124.522-.58.934zM686.3 447.038c-.056-.194.142-.487.588-.888.055.192-.14.49-.588.888zM622.378 595.136c-.072-.215.117-.532.576-.943.075.217-.12.529-.576.943zM687.3 446.038c-.056-.194.142-.487.589-.887.054.191-.14.49-.589.887zM618.505 599.253c-.093-.241.079-.58.545-.977.103.254-.089.567-.545.977zM617.535 600.268c-.1-.244.064-.586.522-.984.111.258-.074.572-.522.984zM688.3 445.038c-.056-.194.142-.487.589-.887.054.191-.14.49-.588.887zM616.536 601.276c-.096-.247.069-.588.533-.973.11.263-.08.57-.533.973z"/><path fill="#0D2227" d="M403.636 561.239c-.147-.205-.08-.574.255-1.072.164.216.062.562-.255 1.072z"/><path fill="#EF5418" d="M615.56 602.283c-.1-.246.056-.59.511-.979.116.264-.068.572-.51.979z"/><path fill="#0D2227" d="M704.025 601.726c-.19.146-.46.012-.835-.354.156-.08.443.021.835.354z"/><path fill="#EF5418" d="M614.586 603.296c-.103-.247.046-.593.498-.974.119.268-.063.571-.498.974zM613.586 604.302c-.1-.249.052-.594.507-.963.117.272-.07.57-.507.963zM656.585 557.19c-.133-.207-.036-.548.309-1.02.139.21.03.548-.309 1.02zM610.709 607.318c-.121-.248-.01-.596.406-.954.145.278-.015.567-.406.954zM657.301 556.038c-.056-.194.142-.487.589-.886.054.192-.14.49-.589.886zM642.533 573.197c-.123-.212-.007-.555.361-1.027.127.213.004.555-.36 1.027zM652.299 562.036c-.055-.194.143-.486.59-.885.054.192-.141.489-.59.885zM651.3 563.038c-.057-.195.14-.488.587-.888.054.192-.139.49-.587.888z"/><path fill="#0D2227" d="M401.931 563.76c-.216.025-.353-.176-.462-.39-.007-.013.202-.136.502-.258.192-.05.046.418-.04.647z"/><path fill="#EF5418" d="M650.535 564.198c-.124-.212-.01-.555.356-1.028.127.212.006.554-.356 1.028zM649.677 565.304c-.12-.247 0-.596.421-.976.141.27-.02.572-.421.976zM683.302 450.037c-.057-.194.14-.487.587-.887.055.192-.14.49-.587.887zM645.303 570.041c-.045-.194.17-.49.644-.884.046.195-.17.49-.644.884zM644.3 571.04c-.055-.195.143-.49.592-.889.055.194-.14.492-.591.89zM643.302 572.042c-.057-.196.14-.49.589-.891.055.193-.139.493-.589.891zM653.3 561.036c-.05-.192.153-.486.609-.886.05.191-.152.488-.609.886zM684.3 449.038c-.056-.194.141-.488.588-.888.055.192-.139.49-.588.888zM637.3 579.036c-.048-.19.16-.484.62-.883.047.19-.16.485-.62.883zM636.3 580.04c-.056-.195.142-.49.59-.888.056.193-.14.491-.59.888zM635.302 581.04c-.058-.195.14-.49.587-.89.056.194-.138.493-.587.89zM634.438 582.169c-.102-.215.048-.548.451-1.004.103.213-.048.55-.451 1.004zM633.517 583.246c-.101-.237.058-.579.506-.996.11.247-.067.569-.506.996zM632.57 584.283c-.104-.244.046-.591.495-.989.12.261-.06.574-.494.989zM685.3 448.038c-.056-.195.142-.488.588-.888.055.191-.14.49-.588.888zM680.3 453.033c-.052-.19.146-.48.59-.879.052.188-.144.482-.59.879z"/><path fill="#0D2227" d="M638.686 614.89c.06.202-.138.528-.612.955-.066-.209.145-.52.612-.955z"/><path fill="#EF5418" d="M583.923 616.334c.207-.06.507.143.899.61-.207.06-.506-.144-.899-.61zM600.556 617.295c-.096-.252.066-.594.532-.958.11.274-.082.57-.532.958z"/><path fill="#0D2227" d="M637.675 615.912c.061.206-.136.523-.607.932-.067-.212.141-.517.607-.932z"/><path fill="#EF5418" d="M584.894 617.35c.209-.07.52.12.933.572-.21.07-.52-.122-.933-.572zM599.453 618.226c-.071-.238.122-.562.613-.918.083.257-.133.544-.613.918z"/><path fill="#0D2227" d="M636.677 616.908c.055.204-.153.523-.637.942-.059-.209.158-.518.637-.942z"/><path fill="#EF5418" d="M664.836 547.321c-.126-.25-.054-.583.315-.863.26.353.122.596-.315.863zM579.321 306.717c.125.236.013.585-.393.99-.144-.257.007-.567.393-.99zM601.585 616.313c-.097-.255.059-.597.52-.948.113.281-.077.571-.52.948z"/><path fill="#0D2227" d="M745.243 618.374c-.204.14-.575.062-1.075-.284.217-.157.563-.045 1.075.284zM634.69 618.899c.05.195-.157.518-.639.947-.056-.202.162-.511.638-.947z"/><path fill="#EF5418" d="M679.3 454.032c-.053-.19.145-.48.589-.878.052.188-.144.482-.59.878z"/><path fill="#0D2227" d="M748.063 620.698c-.205.064-.516-.13-.924-.586.208-.066.512.132.924.586zM628.707 624.938c.046.185-.16.493-.628.912-.048-.189.164-.49.628-.912zM626.712 626.95c.042.18-.168.484-.634.902-.044-.184.17-.483.634-.903zM622.696 630.921c.057.197-.14.511-.604.932-.06-.201.144-.507.604-.932zM621.698 631.94c.054.194-.147.501-.61.913-.055-.197.15-.498.61-.913zM620.692 632.937c.058.202-.14.511-.606.916-.061-.205.144-.507.606-.916zM643.652 610.876c.042.216-.19.524-.723.876-.05-.232.2-.508.723-.876z"/><path fill="#EF5418" d="M609.713 608.34c-.112-.255 0-.598.417-.915.26.369.094.635-.417.915zM658.303 555.039c-.059-.195.137-.489.58-.889.057.192-.135.491-.58.889zM682.302 451.036c-.055-.193.142-.485.587-.885.054.19-.14.488-.587.885zM560.277 330.715c.132.241.031.588-.366.976-.154-.263-.01-.567.366-.976zM608.72 609.34c-.113-.255-.003-.599.41-.912.261.369.097.634-.41.912zM607.72 610.34c-.112-.255-.003-.598.41-.908.26.37.096.633-.41.908zM606.672 611.344c-.105-.258.02-.601.45-.915.257.38.083.646-.45.915zM681.303 452.036c-.055-.191.142-.484.586-.883.054.19-.14.486-.586.883zM605.654 612.332c-.105-.254.026-.6.463-.935.129.288-.049.566-.463.935z"/><path fill="#0D2227" d="M619.69 633.932c.058.2-.14.511-.605.92-.061-.206.144-.508.605-.92z"/><path fill="#EF5418" d="M604.623 613.326c-.102-.254.041-.599.49-.941.121.285-.063.568-.49.941z"/><path fill="#0D2227" d="M642.526 611.697c.056.248-.148.589-.67.907-.075-.287.167-.55.67-.907z"/><path fill="#EF5418" d="M662.301 550.038c-.055-.194.143-.487.591-.884.054.192-.141.489-.59.884zM603.627 614.32c-.105-.252.035-.599.48-.956.125.28-.054.57-.48.956z"/><path fill="#0D2227" d="M410.686 550.2c-.148-.197-.092-.554.228-1.035.167.21.072.543-.228 1.035z"/><path fill="#EF5418" d="M568.185 320.715c.136.24.063.58-.312.925-.272-.323-.138-.6.312-.925zM602.627 615.321c-.105-.252.036-.598.482-.954.125.28-.056.57-.482.954z"/><path fill="#F4F2ED" d="M711.94 290.198c.449.553.897 1.106 1.706 2.022.645.59.93.815 1.217 1.041 0 0-.008-.156.01.173.663 1.144 1.31 1.958 1.956 2.773 0 0 .031-.098.044.162.239.502.464.744.69.985 0 0-.061.043.04.377a85.392 85.392 0 0 0 1.51 3.248c2.496 8.374 2.73 16.766 1.128 25.401-1.492 8.038-6.234 13.662-12.427 19.188-.656.68-.886.965-1.116 1.25 0 0 .165-.026-.194-.002-1.809 1.02-3.258 2.016-4.706 3.013 0 0 .104.024-.28.048-7.34 3.139-14.641 4.435-22.022 2.476-5.188-1.376-10.089-3.837-15.118-5.814 0 0-.095.035-.184-.17-.424-.332-.759-.46-1.094-.589 0 0-.005.102-.092-.17-.583-.551-1.08-.83-1.577-1.109 0 0-.055-.035-.215-.298-1.069-1.022-1.977-1.782-2.886-2.542 0 0-.086.078-.114-.171-.31-.46-.593-.67-.875-.88 0 0 0 .145-.035-.176-.428-.737-.822-1.152-1.215-1.568 0 0-.044.092-.1-.275-6.792-11.624-6.15-23.443-2.724-35.473 0 0-.11-.021.154-.148.418-.728.57-1.328.723-1.928 0 0-.083.006.178-.131.464-.707.667-1.276.87-1.846 0 0-.1.001.176-.109.51-.669.744-1.229.978-1.788 0 0-.165-.039.095-.071.417-.366.574-.698.73-1.031 0 0-.09.001.17-.074.557-.52.854-.966 1.152-1.411 0 0 .024-.094.264-.225.493-.334.641-.597.685-.92 0 0 .063-.06.3-.133.727-.597 1.216-1.12 1.705-1.643 0 0 .07-.09.356-.235.66-.511 1.033-.878 1.407-1.245 0 0-.095-.037.171-.063.504-.278.742-.53.98-.783 0 0-.138.036.197.003.785-.394 1.235-.755 1.684-1.116 0 0-.12-.04.185-.047.774-.367 1.24-.725 1.708-1.084 0 0-.079-.024.184-.044.516-.25.769-.479 1.022-.708 0 0-.123.06.213.024.801-.36 1.267-.685 1.733-1.01 0 0-.173-.038.193-.061.793-.419 1.22-.814 1.647-1.21 0 0-.093-.023.247-.03 1.162-.305 1.984-.602 2.807-.898 0 0-.103-.017.307-.028 9.235-3.35 17.881-2.525 26.406 1.11 0 0 .017-.1.143.165.715.448 1.302.632 1.89.815 0 0 0-.11.117.163.691.477 1.266.683 1.84.888 0 0 .01-.113.108.158.628.526 1.157.78 1.687 1.034 0 0 .086-.102.146.137.392.378.724.518 1.056.658 0 0 .025-.144.064.117.355.441.672.622.99.803 0 0 .013-.117.058.144.345.468.646.674.947.88z"/><path fill="#EF5418" d="M664.373 346.91c5.034 1.606 9.935 4.067 15.123 5.443 7.381 1.959 14.682.663 22.012-2.53-4.029 1.663-8.352 4.577-12.857 4.892-8.775.614-17.23-1.564-24.278-7.806zM652.9 303.23c-3.059 11.918-3.7 23.737 3.137 35.339-.77-.287-2.045-.726-2.45-1.58-5.25-11.04-6.63-22.248-.687-33.76zM702.786 283.883c-8.417-3.283-17.063-4.108-26.288-.707 3.824-1.326 8.076-3.89 12.262-3.787 4.67.116 9.281 2.656 14.026 4.494zM702.172 349.877c1.074-1.045 2.523-2.041 4.293-3.136a25.34 25.34 0 0 1-4.293 3.136zM658.26 342.042c.979.379 1.887 1.139 2.967 2.13a10.13 10.13 0 0 1-2.966-2.13zM719.335 300.77c-.692-.762-1.162-1.734-1.738-3.002.583.733 1.272 1.763 1.738 3.002zM716.854 295.856c-.672-.464-1.318-1.278-2.056-2.398.633.479 1.357 1.263 2.056 2.398zM675.82 283.112c-.462.337-1.284.634-2.45.986.468-.305 1.278-.666 2.45-.986zM661.116 291.546c-.158.637-.647 1.16-1.382 1.8.186-.561.619-1.238 1.382-1.8zM654.909 299.21c.08.425-.123.994-.575 1.74-.068-.413.111-1.004.575-1.74zM653.865 301.207c.127.435-.026 1.035-.433 1.818-.118-.43.018-1.042.433-1.818zM656.032 297.271c.08.456-.154 1.016-.65 1.734-.062-.438.137-1.035.65-1.734zM656.1 339.198c.384.084.778.5 1.265 1.193-.357-.102-.807-.481-1.265-1.193zM661.433 344.84c.495-.06.992.219 1.624.753-.451.032-1.037-.191-1.624-.753zM670.945 285.274c-.124.403-.59.728-1.337 1.13.144-.351.57-.78 1.337-1.13zM672.796 284.09c-.096.387-.523.782-1.245 1.254.107-.365.51-.806 1.245-1.255zM704.782 284.922c-.443.11-1.03-.074-1.795-.511.432-.097 1.041.06 1.795.51zM706.758 285.964c-.448.097-1.023-.109-1.767-.571.434-.082 1.037.093 1.767.57zM708.631 287.122c-.482.082-1.011-.172-1.692-.68.447-.054 1.046.145 1.692.68zM667.807 287.095c-.14.354-.606.712-1.373 1.142.149-.332.597-.735 1.373-1.142zM665.9 288.185c-.107.397-.557.758-1.29 1.202.125-.357.536-.798 1.29-1.202zM662.873 290.16c-.037.387-.41.754-1.02 1.236.07-.343.376-.8 1.02-1.237zM658.167 294.527c.028.5-.269.944-.813 1.508-.002-.441.242-1.001.813-1.508zM711.837 289.939c-.198.052-.499-.154-.903-.619.197-.052.498.154.903.619zM664.072 289.343c.051.244-.187.496-.687.825-.042-.221.178-.519.687-.825zM710.825 288.915c-.208.077-.525-.104-.953-.54.208-.076.526.103.953.54zM709.78 287.98c-.23.133-.563-.007-1.022-.387.223-.123.572-.004 1.022.387zM669.059 286.338c.029.229-.224.458-.74.749-.023-.209.217-.48.74-.75zM714.781 292.986c-.204.05-.49-.176-.885-.662.195-.045.5.17.885.662zM717.593 297.07c-.256.043-.481-.2-.771-.695.224-.033.513.189.771.695zM656.913 296.182c.102.217-.055.55-.465 1-.1-.216.054-.55.465-1zM659.144 293.418c.254.34.106.604-.352.904-.12-.243-.033-.583.352-.904zM706.983 346.748c-.055-.215.175-.5.67-.897.047.2-.169.513-.67.897zM663.208 346.045c.227-.137.562-.008 1.023.36-.222.128-.568.017-1.023-.36zM657.354 340.909c.269-.09.552.121.92.59-.245.076-.575-.108-.92-.59z"/><path fill="#174349" d="M400.69 614.625c.18-.028.496.122.633.389-.179.115-.494-.21-.632-.389z"/></svg>